<svg width="65" height="65" viewBox="0 0 65 65" fill="none" xmlns="http://www.w3.org/2000/svg">
<g clip-path="url(#clip0_0_77)">
<rect width="65" height="65" rx="14" fill="#FEF0F2"/>
<g filter="url(#filter0_d_0_77)">
<path d="M8 19C8 15.6863 10.6863 13 14 13H51C54.3137 13 57 15.6863 57 19V78H8V19Z" fill="white"/>
<rect x="12" y="17" width="17" height="6" fill="#F5F5F5"/>
<rect x="42" y="19" width="11" height="2" fill="#F5F5F5"/>
<rect x="12" y="27" width="41" height="10" fill="#FEE7EA"/>
<circle cx="18.5" cy="47" r="6" fill="#E60A2B"/>
<circle cx="32.5" cy="47" r="6" fill="#E1F3FF"/>
<circle cx="46.5" cy="47" r="6" fill="#FEF7E1"/>
<path d="M18.1677 51.125V50.1625C17.7323 50.0861 17.3752 49.92 17.0964 49.6641C16.8176 49.4082 16.617 49.0854 16.4948 48.6958L17.1365 48.4323C17.2663 48.799 17.4535 49.072 17.6979 49.2516C17.9424 49.4311 18.2365 49.5208 18.5802 49.5208C18.9469 49.5208 19.2486 49.4292 19.4854 49.2458C19.7222 49.0625 19.8406 48.8104 19.8406 48.4896C19.8406 48.1535 19.7356 47.8938 19.5255 47.7104C19.3155 47.5271 18.9202 47.3399 18.3396 47.149C17.7896 46.9733 17.379 46.7403 17.1078 46.45C16.8367 46.1597 16.7011 45.7969 16.7011 45.3615C16.7011 44.9413 16.8367 44.5899 17.1078 44.3073C17.379 44.0247 17.7323 43.8642 18.1677 43.826V42.875H18.8552V43.826C19.199 43.8642 19.495 43.9769 19.7432 44.1641C19.9915 44.3512 20.1806 44.5899 20.3104 44.8802L19.6688 45.1552C19.5618 44.9108 19.4186 44.7332 19.2391 44.6224C19.0596 44.5116 18.8247 44.4562 18.5344 44.4562C18.183 44.4562 17.9042 44.5365 17.6979 44.6969C17.4917 44.8573 17.3886 45.075 17.3886 45.35C17.3886 45.6403 17.5031 45.8752 17.7323 46.0547C17.9615 46.2342 18.3854 46.4194 19.0042 46.6104C19.5236 46.7708 19.9075 47.0019 20.1557 47.3036C20.404 47.6054 20.5281 47.9854 20.5281 48.4437C20.5281 48.925 20.3868 49.3127 20.1042 49.6068C19.8215 49.9009 19.4052 50.0899 18.8552 50.174V51.125H18.1677Z" fill="white"/>
<path d="M29.75 51.125V50.3917C29.9486 50.2694 30.1281 50.1339 30.2885 49.9849C30.449 49.8359 30.5865 49.6774 30.701 49.5094C30.8156 49.3413 30.9035 49.1618 30.9646 48.9708C31.0257 48.7799 31.0563 48.5813 31.0563 48.375C31.0563 48.2757 31.0505 48.1802 31.0391 48.0885C31.0276 47.9969 31.0104 47.9014 30.9875 47.8021H29.75V47.1146H30.6437C30.3458 46.7021 30.1415 46.3373 30.0307 46.0203C29.92 45.7033 29.8646 45.3806 29.8646 45.0521C29.8646 44.3799 30.0976 43.8108 30.5635 43.3448C31.0295 42.8788 31.5986 42.6458 32.2708 42.6458C32.7674 42.6458 33.2161 42.77 33.6172 43.0182C34.0182 43.2665 34.3142 43.6007 34.5052 44.0208L33.875 44.2844C33.7375 43.9941 33.5217 43.763 33.2276 43.5911C32.9335 43.4193 32.6146 43.3333 32.2708 43.3333C31.7972 43.3333 31.3924 43.4995 31.0563 43.8318C30.7201 44.1641 30.5521 44.5708 30.5521 45.0521C30.5521 45.35 30.6132 45.6422 30.7354 45.9286C30.8576 46.2151 31.1021 46.6104 31.4688 47.1146H33.4167V47.8021H31.6865C31.7094 47.9014 31.7247 48.0007 31.7323 48.1C31.7399 48.1993 31.7438 48.291 31.7438 48.375C31.7438 48.7799 31.6559 49.158 31.4802 49.5094C31.3045 49.8608 31.083 50.1701 30.8156 50.4375H33.4167C33.7069 50.4375 33.9628 50.3611 34.1844 50.2083C34.4059 50.0556 34.5663 49.8073 34.6656 49.4635L35.2615 49.7615C35.1622 50.2122 34.9311 50.5521 34.5682 50.7813C34.2054 51.0104 33.8215 51.125 33.4167 51.125H29.75Z" fill="#81CFFE"/>
<path d="M46.1563 51.125V49.4062H43.75V48.7188H46.1563V47.5729H43.75V46.8854H45.824L43.2917 42.875H44.1052L46.5 46.6677L48.8948 42.875H49.7084L47.1761 46.8854H49.25V47.5729H46.8438V48.7188H49.25V49.4062H46.8438V51.125H46.1563Z" fill="#FCE08D"/>
<rect x="12" y="56" width="26" height="10" fill="#F5F5F5"/>
<path d="M51.3333 58.0833L47.0256 62.4583L45.2308 60.6354L42 63.9167" stroke="#A8E39C" stroke-width="1.5" stroke-linecap="round" stroke-linejoin="round"/>
<path d="M51.3334 61.5833V58.0833H47.8334" stroke="#A8E39C" stroke-width="1.5" stroke-linecap="round" stroke-linejoin="round"/>
</g>
</g>
<rect x="0.3" y="0.3" width="64.4" height="64.4" rx="13.7" stroke="#FCB6C0" stroke-width="0.6"/>
<defs>
<filter id="filter0_d_0_77" x="-2" y="7" width="69" height="85" filterUnits="userSpaceOnUse" color-interpolation-filters="sRGB">
<feFlood flood-opacity="0" result="BackgroundImageFix"/>
<feColorMatrix in="SourceAlpha" type="matrix" values="0 0 0 0 0 0 0 0 0 0 0 0 0 0 0 0 0 0 127 0" result="hardAlpha"/>
<feOffset dy="4"/>
<feGaussianBlur stdDeviation="5"/>
<feComposite in2="hardAlpha" operator="out"/>
<feColorMatrix type="matrix" values="0 0 0 0 0.4 0 0 0 0 0.4 0 0 0 0 0.4 0 0 0 0.1 0"/>
<feBlend mode="normal" in2="BackgroundImageFix" result="effect1_dropShadow_0_77"/>
<feBlend mode="normal" in="SourceGraphic" in2="effect1_dropShadow_0_77" result="shape"/>
</filter>
<clipPath id="clip0_0_77">
<rect width="65" height="65" rx="14" fill="white"/>
</clipPath>
</defs>
</svg>
