<svg width="65" height="65" viewBox="0 0 65 65" fill="none" xmlns="http://www.w3.org/2000/svg">
<g clip-path="url(#clip0_0_141)">
<rect width="65" height="65" rx="14" fill="#FEF7E1"/>
<g filter="url(#filter0_d_0_141)">
<g clip-path="url(#clip1_0_141)">
<path d="M8 18C8 14.6863 10.6863 12 14 12H51C54.3137 12 57 14.6863 57 18V77H8V18Z" fill="white"/>
<rect x="12" y="16" width="17" height="6" fill="#F5F5F5"/>
<rect x="42" y="18" width="11" height="2" fill="#F5F5F5"/>
<rect x="12" y="45" width="41" height="7" fill="#F5F5F5"/>
<rect x="12" y="54" width="41" height="25" fill="#F5F5F5"/>
<rect x="12" y="26" width="12" height="15" rx="1" fill="#F5F5F5"/>
<rect x="26" y="26" width="13" height="15" rx="1" fill="#FEEBEE"/>
<rect x="41" y="26" width="12" height="15" rx="1" fill="#F5F5F5"/>
<path d="M18 33C19.2656 33 20.2916 31.974 20.2916 30.7083C20.2916 29.4427 19.2656 28.4167 18 28.4167C16.7343 28.4167 15.7083 29.4427 15.7083 30.7083C15.7083 31.974 16.7343 33 18 33Z" fill="#DEDEDE"/>
<path d="M18 34.1458C15.7037 34.1458 13.8337 35.6858 13.8337 37.5833C13.8337 37.7117 13.9346 37.8125 14.0629 37.8125H21.9371C22.0654 37.8125 22.1662 37.7117 22.1662 37.5833C22.1662 35.6858 20.2962 34.1458 18 34.1458Z" fill="#DEDEDE"/>
<path d="M32.5 33.5C33.7656 33.5 34.7916 32.474 34.7916 31.2083C34.7916 29.9427 33.7656 28.9167 32.5 28.9167C31.2343 28.9167 30.2083 29.9427 30.2083 31.2083C30.2083 32.474 31.2343 33.5 32.5 33.5Z" fill="#E60A2B"/>
<path d="M32.5 34.6458C30.2037 34.6458 28.3337 36.1858 28.3337 38.0833C28.3337 38.2117 28.4346 38.3125 28.5629 38.3125H36.4371C36.5654 38.3125 36.6662 38.2117 36.6662 38.0833C36.6662 36.1858 34.7962 34.6458 32.5 34.6458Z" fill="#E60A2B"/>
<path d="M47 33.5C48.2656 33.5 49.2916 32.474 49.2916 31.2083C49.2916 29.9427 48.2656 28.9167 47 28.9167C45.7343 28.9167 44.7083 29.9427 44.7083 31.2083C44.7083 32.474 45.7343 33.5 47 33.5Z" fill="#DEDEDE"/>
<path d="M47 34.6458C44.7037 34.6458 42.8337 36.1858 42.8337 38.0833C42.8337 38.2117 42.9346 38.3125 43.0629 38.3125H50.9371C51.0654 38.3125 51.1662 38.2117 51.1662 38.0833C51.1662 36.1858 49.2962 34.6458 47 34.6458Z" fill="#DEDEDE"/>
</g>
</g>
</g>
<rect x="0.3" y="0.3" width="64.4" height="64.4" rx="13.7" stroke="#FDEDBE" stroke-width="0.6"/>
<defs>
<filter id="filter0_d_0_141" x="-2" y="6" width="69" height="85" filterUnits="userSpaceOnUse" color-interpolation-filters="sRGB">
<feFlood flood-opacity="0" result="BackgroundImageFix"/>
<feColorMatrix in="SourceAlpha" type="matrix" values="0 0 0 0 0 0 0 0 0 0 0 0 0 0 0 0 0 0 127 0" result="hardAlpha"/>
<feOffset dy="4"/>
<feGaussianBlur stdDeviation="5"/>
<feComposite in2="hardAlpha" operator="out"/>
<feColorMatrix type="matrix" values="0 0 0 0 0.4 0 0 0 0 0.4 0 0 0 0 0.4 0 0 0 0.1 0"/>
<feBlend mode="normal" in2="BackgroundImageFix" result="effect1_dropShadow_0_141"/>
<feBlend mode="normal" in="SourceGraphic" in2="effect1_dropShadow_0_141" result="shape"/>
</filter>
<clipPath id="clip0_0_141">
<rect width="65" height="65" rx="14" fill="white"/>
</clipPath>
<clipPath id="clip1_0_141">
<path d="M8 18C8 14.6863 10.6863 12 14 12H51C54.3137 12 57 14.6863 57 18V77H8V18Z" fill="white"/>
</clipPath>
</defs>
</svg>
