<svg width="436" height="67" viewBox="0 0 436 67" fill="none" xmlns="http://www.w3.org/2000/svg">
<g clip-path="url(#clip0_0_140)">
<rect y="1" width="65" height="65" rx="14" fill="#FEF7E1"/>
<g filter="url(#filter0_d_0_140)">
<g clip-path="url(#clip1_0_140)">
<path d="M8 19C8 15.6863 10.6863 13 14 13H51C54.3137 13 57 15.6863 57 19V78H8V19Z" fill="white"/>
<rect x="12" y="17" width="17" height="6" fill="#F5F5F5"/>
<rect x="42" y="19" width="11" height="2" fill="#F5F5F5"/>
<rect x="12" y="46" width="41" height="7" fill="#F5F5F5"/>
<rect x="12" y="55" width="41" height="25" fill="#F5F5F5"/>
<rect x="12" y="27" width="12" height="15" rx="1" fill="#F5F5F5"/>
<rect x="26" y="27" width="13" height="15" rx="1" fill="#FEEBEE"/>
<rect x="41" y="27" width="12" height="15" rx="1" fill="#F5F5F5"/>
<path d="M18 34C19.2656 34 20.2916 32.974 20.2916 31.7083C20.2916 30.4427 19.2656 29.4167 18 29.4167C16.7343 29.4167 15.7083 30.4427 15.7083 31.7083C15.7083 32.974 16.7343 34 18 34Z" fill="#DEDEDE"/>
<path d="M18 35.1458C15.7037 35.1458 13.8337 36.6858 13.8337 38.5833C13.8337 38.7117 13.9346 38.8125 14.0629 38.8125H21.9371C22.0654 38.8125 22.1662 38.7117 22.1662 38.5833C22.1662 36.6858 20.2962 35.1458 18 35.1458Z" fill="#DEDEDE"/>
<path d="M32.5 34.5C33.7656 34.5 34.7916 33.474 34.7916 32.2083C34.7916 30.9427 33.7656 29.9167 32.5 29.9167C31.2343 29.9167 30.2083 30.9427 30.2083 32.2083C30.2083 33.474 31.2343 34.5 32.5 34.5Z" fill="#E60A2B"/>
<path d="M32.5 35.6458C30.2037 35.6458 28.3337 37.1858 28.3337 39.0833C28.3337 39.2117 28.4346 39.3125 28.5629 39.3125H36.4371C36.5654 39.3125 36.6662 39.2117 36.6662 39.0833C36.6662 37.1858 34.7962 35.6458 32.5 35.6458Z" fill="#E60A2B"/>
<path d="M47 34.5C48.2656 34.5 49.2916 33.474 49.2916 32.2083C49.2916 30.9427 48.2656 29.9167 47 29.9167C45.7343 29.9167 44.7083 30.9427 44.7083 32.2083C44.7083 33.474 45.7343 34.5 47 34.5Z" fill="#DEDEDE"/>
<path d="M47 35.6458C44.7037 35.6458 42.8337 37.1858 42.8337 39.0833C42.8337 39.2117 42.9346 39.3125 43.0629 39.3125H50.9371C51.0654 39.3125 51.1662 39.2117 51.1662 39.0833C51.1662 37.1858 49.2962 35.6458 47 35.6458Z" fill="#DEDEDE"/>
</g>
</g>
</g>
<rect x="0.3" y="1.3" width="64.4" height="64.4" rx="13.7" stroke="#FDEDBE" stroke-width="0.6"/>
<path d="M86.12 19V7.48H89.672C89.7893 7.48 89.9947 7.48267 90.288 7.488C90.5813 7.49333 90.8613 7.51467 91.128 7.552C92.0187 7.66933 92.7627 7.99467 93.36 8.528C93.9627 9.056 94.416 9.728 94.72 10.544C95.024 11.36 95.176 12.2587 95.176 13.24C95.176 14.2213 95.024 15.12 94.72 15.936C94.416 16.752 93.9627 17.4267 93.36 17.96C92.7627 18.488 92.0187 18.8107 91.128 18.928C90.8613 18.96 90.5787 18.9813 90.28 18.992C89.9867 18.9973 89.784 19 89.672 19H86.12ZM87.584 17.64H89.672C89.8747 17.64 90.1013 17.6347 90.352 17.624C90.6027 17.608 90.8213 17.584 91.008 17.552C91.6373 17.4347 92.1467 17.1707 92.536 16.76C92.9253 16.3493 93.2107 15.8373 93.392 15.224C93.5733 14.6107 93.664 13.9493 93.664 13.24C93.664 12.5147 93.5707 11.8453 93.384 11.232C93.2027 10.6187 92.9173 10.1093 92.528 9.704C92.1387 9.29867 91.632 9.04 91.008 8.928C90.8213 8.89067 90.6 8.86667 90.344 8.856C90.088 8.84533 89.864 8.84 89.672 8.84H87.584V17.64ZM100.455 19.24C99.6066 19.24 98.8653 19.0533 98.2306 18.68C97.6013 18.3013 97.1106 17.776 96.7586 17.104C96.4066 16.4267 96.2306 15.6373 96.2306 14.736C96.2306 13.792 96.404 12.976 96.7506 12.288C97.0973 11.5947 97.58 11.0613 98.1986 10.688C98.8226 10.3093 99.5533 10.12 100.391 10.12C101.26 10.12 101.999 10.32 102.607 10.72C103.22 11.12 103.679 11.6907 103.983 12.432C104.292 13.1733 104.425 14.056 104.383 15.08H102.943V14.568C102.927 13.5067 102.711 12.7147 102.295 12.192C101.879 11.664 101.26 11.4 100.439 11.4C99.5586 11.4 98.8893 11.6827 98.4306 12.248C97.972 12.8133 97.7426 13.624 97.7426 14.68C97.7426 15.6987 97.972 16.488 98.4306 17.048C98.8893 17.608 99.5426 17.888 100.391 17.888C100.961 17.888 101.457 17.7573 101.879 17.496C102.3 17.2347 102.631 16.8587 102.871 16.368L104.239 16.84C103.903 17.6027 103.396 18.1947 102.719 18.616C102.047 19.032 101.292 19.24 100.455 19.24ZM97.2626 15.08V13.936H103.647V15.08H97.2626ZM106.024 19V7.24H107.448V19H106.024ZM113.292 19.24C112.444 19.24 111.703 19.0533 111.068 18.68C110.439 18.3013 109.948 17.776 109.596 17.104C109.244 16.4267 109.068 15.6373 109.068 14.736C109.068 13.792 109.241 12.976 109.588 12.288C109.935 11.5947 110.417 11.0613 111.036 10.688C111.66 10.3093 112.391 10.12 113.228 10.12C114.097 10.12 114.836 10.32 115.444 10.72C116.057 11.12 116.516 11.6907 116.82 12.432C117.129 13.1733 117.263 14.056 117.22 15.08H115.78V14.568C115.764 13.5067 115.548 12.7147 115.132 12.192C114.716 11.664 114.097 11.4 113.276 11.4C112.396 11.4 111.727 11.6827 111.268 12.248C110.809 12.8133 110.58 13.624 110.58 14.68C110.58 15.6987 110.809 16.488 111.268 17.048C111.727 17.608 112.38 17.888 113.228 17.888C113.799 17.888 114.295 17.7573 114.716 17.496C115.137 17.2347 115.468 16.8587 115.708 16.368L117.076 16.84C116.74 17.6027 116.233 18.1947 115.556 18.616C114.884 19.032 114.129 19.24 113.292 19.24ZM110.1 15.08V13.936H116.484V15.08H110.1ZM122.197 23.08C121.744 23.08 121.301 23.0107 120.869 22.872C120.437 22.7333 120.04 22.5227 119.677 22.24C119.32 21.9627 119.021 21.6107 118.781 21.184L120.085 20.496C120.299 20.9173 120.6 21.224 120.989 21.416C121.384 21.608 121.789 21.704 122.205 21.704C122.755 21.704 123.211 21.6027 123.573 21.4C123.936 21.2027 124.203 20.9067 124.373 20.512C124.549 20.1173 124.635 19.6267 124.629 19.04V16.68H124.797V10.36H126.061V19.056C126.061 19.2907 126.053 19.5173 126.037 19.736C126.027 19.9547 126 20.1707 125.957 20.384C125.845 20.9973 125.624 21.5013 125.293 21.896C124.963 22.296 124.536 22.592 124.013 22.784C123.491 22.9813 122.885 23.08 122.197 23.08ZM122.093 19.24C121.288 19.24 120.597 19.04 120.021 18.64C119.445 18.2347 119 17.688 118.685 17C118.376 16.312 118.221 15.536 118.221 14.672C118.221 13.808 118.376 13.032 118.685 12.344C119 11.656 119.445 11.1147 120.021 10.72C120.597 10.32 121.285 10.12 122.085 10.12C122.901 10.12 123.587 10.3173 124.141 10.712C124.696 11.1067 125.115 11.648 125.397 12.336C125.685 13.024 125.829 13.8027 125.829 14.672C125.829 15.5307 125.685 16.3067 125.397 17C125.115 17.688 124.696 18.2347 124.141 18.64C123.587 19.04 122.904 19.24 122.093 19.24ZM122.269 17.936C122.851 17.936 123.328 17.7973 123.701 17.52C124.075 17.2373 124.349 16.8507 124.525 16.36C124.707 15.864 124.797 15.3013 124.797 14.672C124.797 14.032 124.707 13.4693 124.525 12.984C124.349 12.4933 124.077 12.112 123.709 11.84C123.341 11.5627 122.875 11.424 122.309 11.424C121.723 11.424 121.237 11.568 120.853 11.856C120.475 12.144 120.192 12.5333 120.005 13.024C119.824 13.5147 119.733 14.064 119.733 14.672C119.733 15.2853 119.827 15.84 120.013 16.336C120.2 16.8267 120.48 17.216 120.853 17.504C121.232 17.792 121.704 17.936 122.269 17.936ZM130.451 19.24C129.806 19.24 129.264 19.1227 128.827 18.888C128.395 18.648 128.067 18.3333 127.843 17.944C127.624 17.5547 127.515 17.128 127.515 16.664C127.515 16.2107 127.6 15.8187 127.771 15.488C127.947 15.152 128.192 14.8747 128.507 14.656C128.822 14.432 129.198 14.256 129.635 14.128C130.046 14.016 130.504 13.92 131.011 13.84C131.523 13.7547 132.04 13.6773 132.563 13.608C133.086 13.5387 133.574 13.472 134.027 13.408L133.515 13.704C133.531 12.936 133.376 12.368 133.051 12C132.731 11.632 132.176 11.448 131.387 11.448C130.864 11.448 130.406 11.568 130.011 11.808C129.622 12.0427 129.347 12.4267 129.187 12.96L127.835 12.552C128.043 11.7947 128.446 11.2 129.043 10.768C129.64 10.336 130.427 10.12 131.403 10.12C132.187 10.12 132.859 10.2613 133.419 10.544C133.984 10.8213 134.39 11.2427 134.635 11.808C134.758 12.0747 134.835 12.3653 134.867 12.68C134.899 12.9893 134.915 13.3147 134.915 13.656V19H133.651V16.928L133.947 17.12C133.622 17.8187 133.166 18.3467 132.579 18.704C131.998 19.0613 131.288 19.24 130.451 19.24ZM130.667 18.048C131.179 18.048 131.622 17.9573 131.995 17.776C132.374 17.5893 132.678 17.3467 132.907 17.048C133.136 16.744 133.286 16.4133 133.355 16.056C133.435 15.7893 133.478 15.4933 133.483 15.168C133.494 14.8373 133.499 14.584 133.499 14.408L133.995 14.624C133.531 14.688 133.075 14.7493 132.627 14.808C132.179 14.8667 131.755 14.9307 131.355 15C130.955 15.064 130.595 15.1413 130.275 15.232C130.04 15.3067 129.819 15.4027 129.611 15.52C129.408 15.6373 129.243 15.7893 129.115 15.976C128.992 16.1573 128.931 16.384 128.931 16.656C128.931 16.8907 128.99 17.1147 129.107 17.328C129.23 17.5413 129.416 17.7147 129.667 17.848C129.923 17.9813 130.256 18.048 130.667 18.048ZM141.519 19C141.007 19.1013 140.5 19.1413 139.999 19.12C139.503 19.104 139.06 19.0053 138.671 18.824C138.282 18.6373 137.986 18.3493 137.783 17.96C137.612 17.6187 137.519 17.2747 137.503 16.928C137.492 16.576 137.487 16.1787 137.487 15.736V7.96H138.911V15.672C138.911 16.024 138.914 16.3253 138.919 16.576C138.93 16.8267 138.986 17.0427 139.087 17.224C139.279 17.5653 139.583 17.7653 139.999 17.824C140.42 17.8827 140.927 17.8667 141.519 17.776V19ZM135.735 11.536V10.36H141.519V11.536H135.735ZM146.358 19.24C145.51 19.24 144.768 19.0533 144.134 18.68C143.504 18.3013 143.014 17.776 142.662 17.104C142.31 16.4267 142.134 15.6373 142.134 14.736C142.134 13.792 142.307 12.976 142.654 12.288C143 11.5947 143.483 11.0613 144.102 10.688C144.726 10.3093 145.456 10.12 146.294 10.12C147.163 10.12 147.902 10.32 148.51 10.72C149.123 11.12 149.582 11.6907 149.886 12.432C150.195 13.1733 150.328 14.056 150.286 15.08H148.846V14.568C148.83 13.5067 148.614 12.7147 148.198 12.192C147.782 11.664 147.163 11.4 146.342 11.4C145.462 11.4 144.792 11.6827 144.334 12.248C143.875 12.8133 143.646 13.624 143.646 14.68C143.646 15.6987 143.875 16.488 144.334 17.048C144.792 17.608 145.446 17.888 146.294 17.888C146.864 17.888 147.36 17.7573 147.782 17.496C148.203 17.2347 148.534 16.8587 148.774 16.368L150.142 16.84C149.806 17.6027 149.299 18.1947 148.622 18.616C147.95 19.032 147.195 19.24 146.358 19.24ZM143.166 15.08V13.936H149.55V15.08H143.166ZM159.494 19C158.982 19.1013 158.475 19.1413 157.974 19.12C157.478 19.104 157.035 19.0053 156.646 18.824C156.257 18.6373 155.961 18.3493 155.758 17.96C155.587 17.6187 155.494 17.2747 155.478 16.928C155.467 16.576 155.462 16.1787 155.462 15.736V7.96H156.886V15.672C156.886 16.024 156.889 16.3253 156.894 16.576C156.905 16.8267 156.961 17.0427 157.062 17.224C157.254 17.5653 157.558 17.7653 157.974 17.824C158.395 17.8827 158.902 17.8667 159.494 17.776V19ZM153.71 11.536V10.36H159.494V11.536H153.71ZM164.269 19.24C163.41 19.24 162.669 19.0453 162.045 18.656C161.426 18.2667 160.949 17.728 160.613 17.04C160.277 16.352 160.109 15.5627 160.109 14.672C160.109 13.7653 160.279 12.9707 160.621 12.288C160.962 11.6053 161.445 11.0747 162.069 10.696C162.693 10.312 163.426 10.12 164.269 10.12C165.133 10.12 165.877 10.3147 166.501 10.704C167.125 11.088 167.602 11.624 167.933 12.312C168.269 12.9947 168.437 13.7813 168.437 14.672C168.437 15.5733 168.269 16.368 167.933 17.056C167.597 17.7387 167.117 18.2747 166.493 18.664C165.869 19.048 165.127 19.24 164.269 19.24ZM164.269 17.888C165.165 17.888 165.831 17.5893 166.269 16.992C166.706 16.3947 166.925 15.6213 166.925 14.672C166.925 13.696 166.703 12.92 166.261 12.344C165.818 11.7627 165.154 11.472 164.269 11.472C163.666 11.472 163.17 11.608 162.781 11.88C162.391 12.152 162.101 12.528 161.909 13.008C161.717 13.488 161.621 14.0427 161.621 14.672C161.621 15.6427 161.845 16.4213 162.293 17.008C162.741 17.5947 163.399 17.888 164.269 17.888ZM176.889 19.24C176.073 19.24 175.337 19.1013 174.681 18.824C174.031 18.5467 173.492 18.152 173.065 17.64C172.644 17.1227 172.369 16.512 172.241 15.808L173.713 15.576C173.9 16.3013 174.287 16.8693 174.873 17.28C175.465 17.6853 176.161 17.888 176.961 17.888C177.479 17.888 177.945 17.808 178.361 17.648C178.783 17.4827 179.116 17.248 179.361 16.944C179.607 16.64 179.729 16.28 179.729 15.864C179.729 15.608 179.684 15.3893 179.593 15.208C179.508 15.0213 179.388 14.864 179.233 14.736C179.084 14.6027 178.913 14.4907 178.721 14.4C178.529 14.3093 178.329 14.2347 178.121 14.176L175.185 13.304C174.865 13.208 174.556 13.088 174.257 12.944C173.959 12.7947 173.692 12.6107 173.457 12.392C173.223 12.168 173.036 11.9013 172.897 11.592C172.759 11.2773 172.689 10.9067 172.689 10.48C172.689 9.79733 172.865 9.216 173.217 8.736C173.575 8.25067 174.057 7.88 174.665 7.624C175.273 7.368 175.959 7.24267 176.721 7.248C177.495 7.25333 178.185 7.392 178.793 7.664C179.407 7.93067 179.913 8.31467 180.313 8.816C180.719 9.31733 180.991 9.91733 181.129 10.616L179.617 10.88C179.537 10.4107 179.359 10.008 179.081 9.672C178.809 9.33067 178.468 9.06933 178.057 8.888C177.647 8.70133 177.196 8.60533 176.705 8.6C176.236 8.59467 175.812 8.66933 175.433 8.824C175.055 8.97867 174.753 9.19467 174.529 9.472C174.305 9.744 174.193 10.0587 174.193 10.416C174.193 10.768 174.295 11.0533 174.497 11.272C174.7 11.4853 174.948 11.656 175.241 11.784C175.54 11.9067 175.831 12.008 176.113 12.088L178.305 12.72C178.556 12.7893 178.844 12.8853 179.169 13.008C179.5 13.1307 179.82 13.304 180.129 13.528C180.439 13.7467 180.695 14.04 180.897 14.408C181.1 14.7707 181.201 15.2293 181.201 15.784C181.201 16.3387 181.089 16.832 180.865 17.264C180.647 17.696 180.34 18.0587 179.945 18.352C179.551 18.64 179.092 18.8587 178.569 19.008C178.047 19.1627 177.487 19.24 176.889 19.24ZM187.403 19C186.891 19.1013 186.385 19.1413 185.883 19.12C185.387 19.104 184.945 19.0053 184.555 18.824C184.166 18.6373 183.87 18.3493 183.667 17.96C183.497 17.6187 183.403 17.2747 183.387 16.928C183.377 16.576 183.371 16.1787 183.371 15.736V7.96H184.795V15.672C184.795 16.024 184.798 16.3253 184.803 16.576C184.814 16.8267 184.87 17.0427 184.971 17.224C185.163 17.5653 185.467 17.7653 185.883 17.824C186.305 17.8827 186.811 17.8667 187.403 17.776V19ZM181.619 11.536V10.36H187.403V11.536H181.619ZM191.314 19.24C190.668 19.24 190.127 19.1227 189.69 18.888C189.258 18.648 188.93 18.3333 188.706 17.944C188.487 17.5547 188.378 17.128 188.378 16.664C188.378 16.2107 188.463 15.8187 188.634 15.488C188.81 15.152 189.055 14.8747 189.37 14.656C189.684 14.432 190.06 14.256 190.498 14.128C190.908 14.016 191.367 13.92 191.874 13.84C192.386 13.7547 192.903 13.6773 193.426 13.608C193.948 13.5387 194.436 13.472 194.89 13.408L194.378 13.704C194.394 12.936 194.239 12.368 193.914 12C193.594 11.632 193.039 11.448 192.25 11.448C191.727 11.448 191.268 11.568 190.874 11.808C190.484 12.0427 190.21 12.4267 190.05 12.96L188.698 12.552C188.906 11.7947 189.308 11.2 189.906 10.768C190.503 10.336 191.29 10.12 192.266 10.12C193.05 10.12 193.722 10.2613 194.282 10.544C194.847 10.8213 195.252 11.2427 195.498 11.808C195.62 12.0747 195.698 12.3653 195.73 12.68C195.762 12.9893 195.778 13.3147 195.778 13.656V19H194.514V16.928L194.81 17.12C194.484 17.8187 194.028 18.3467 193.442 18.704C192.86 19.0613 192.151 19.24 191.314 19.24ZM191.53 18.048C192.042 18.048 192.484 17.9573 192.858 17.776C193.236 17.5893 193.54 17.3467 193.77 17.048C193.999 16.744 194.148 16.4133 194.218 16.056C194.298 15.7893 194.34 15.4933 194.346 15.168C194.356 14.8373 194.362 14.584 194.362 14.408L194.858 14.624C194.394 14.688 193.938 14.7493 193.49 14.808C193.042 14.8667 192.618 14.9307 192.218 15C191.818 15.064 191.458 15.1413 191.138 15.232C190.903 15.3067 190.682 15.4027 190.474 15.52C190.271 15.6373 190.106 15.7893 189.978 15.976C189.855 16.1573 189.794 16.384 189.794 16.656C189.794 16.8907 189.852 17.1147 189.97 17.328C190.092 17.5413 190.279 17.7147 190.53 17.848C190.786 17.9813 191.119 18.048 191.53 18.048ZM198.382 19V9.888C198.382 9.664 198.392 9.43733 198.414 9.208C198.435 8.97333 198.483 8.74667 198.558 8.528C198.632 8.304 198.755 8.09867 198.926 7.912C199.123 7.69333 199.339 7.53867 199.574 7.448C199.808 7.352 200.046 7.29333 200.286 7.272C200.531 7.25067 200.763 7.24 200.982 7.24H202.078V8.424H201.062C200.64 8.424 200.326 8.528 200.118 8.736C199.91 8.93867 199.806 9.248 199.806 9.664V19H198.382ZM196.918 11.536V10.36H202.078V11.536H196.918ZM203.462 19V9.888C203.462 9.664 203.472 9.43733 203.494 9.208C203.515 8.97333 203.563 8.74667 203.638 8.528C203.712 8.304 203.835 8.09867 204.006 7.912C204.203 7.69333 204.419 7.53867 204.654 7.448C204.888 7.352 205.126 7.29333 205.366 7.272C205.611 7.25067 205.843 7.24 206.062 7.24H207.158V8.424H206.142C205.72 8.424 205.406 8.528 205.198 8.736C204.99 8.93867 204.885 9.248 204.885 9.664V19H203.462ZM201.998 11.536V10.36H207.158V11.536H201.998Z" fill="#1A1A1A"/>
<path d="M85.84 43V34.36H91.3V35.374H86.908V38.08H90.58V39.094H86.908V41.986H91.3V43H85.84ZM94.5843 43.18C94.1003 43.18 93.6943 43.092 93.3663 42.916C93.0423 42.736 92.7963 42.5 92.6283 42.208C92.4643 41.916 92.3823 41.596 92.3823 41.248C92.3823 40.908 92.4463 40.614 92.5743 40.366C92.7063 40.114 92.8903 39.906 93.1263 39.742C93.3623 39.574 93.6443 39.442 93.9723 39.346C94.2803 39.262 94.6243 39.19 95.0043 39.13C95.3883 39.066 95.7763 39.008 96.1683 38.956C96.5603 38.904 96.9263 38.854 97.2663 38.806L96.8823 39.028C96.8943 38.452 96.7783 38.026 96.5343 37.75C96.2943 37.474 95.8783 37.336 95.2863 37.336C94.8943 37.336 94.5503 37.426 94.2543 37.606C93.9623 37.782 93.7563 38.07 93.6363 38.47L92.6223 38.164C92.7783 37.596 93.0803 37.15 93.5283 36.826C93.9763 36.502 94.5663 36.34 95.2983 36.34C95.8863 36.34 96.3903 36.446 96.8103 36.658C97.2343 36.866 97.5383 37.182 97.7223 37.606C97.8143 37.806 97.8723 38.024 97.8963 38.26C97.9203 38.492 97.9323 38.736 97.9323 38.992V43H96.9843V41.446L97.2063 41.59C96.9623 42.114 96.6203 42.51 96.1803 42.778C95.7443 43.046 95.2123 43.18 94.5843 43.18ZM94.7463 42.286C95.1303 42.286 95.4623 42.218 95.7423 42.082C96.0263 41.942 96.2543 41.76 96.4263 41.536C96.5983 41.308 96.7103 41.06 96.7623 40.792C96.8223 40.592 96.8543 40.37 96.8583 40.126C96.8663 39.878 96.8703 39.688 96.8703 39.556L97.2423 39.718C96.8943 39.766 96.5523 39.812 96.2163 39.856C95.8803 39.9 95.5623 39.948 95.2623 40C94.9623 40.048 94.6923 40.106 94.4523 40.174C94.2763 40.23 94.1103 40.302 93.9543 40.39C93.8023 40.478 93.6783 40.592 93.5823 40.732C93.4903 40.868 93.4443 41.038 93.4443 41.242C93.4443 41.418 93.4883 41.586 93.5763 41.746C93.6683 41.906 93.8083 42.036 93.9963 42.136C94.1883 42.236 94.4383 42.286 94.7463 42.286ZM101.94 43.174C101.168 43.174 100.534 43.006 100.038 42.67C99.5463 42.33 99.2443 41.856 99.1323 41.248L100.224 41.074C100.312 41.426 100.514 41.706 100.83 41.914C101.146 42.118 101.538 42.22 102.006 42.22C102.45 42.22 102.798 42.128 103.05 41.944C103.302 41.76 103.428 41.51 103.428 41.194C103.428 41.01 103.386 40.862 103.302 40.75C103.218 40.634 103.044 40.526 102.78 40.426C102.52 40.326 102.126 40.206 101.598 40.066C101.026 39.914 100.576 39.756 100.248 39.592C99.9203 39.428 99.6863 39.238 99.5463 39.022C99.4063 38.806 99.3363 38.544 99.3363 38.236C99.3363 37.856 99.4403 37.524 99.6483 37.24C99.8563 36.952 100.146 36.73 100.518 36.574C100.894 36.418 101.33 36.34 101.826 36.34C102.318 36.34 102.758 36.418 103.146 36.574C103.534 36.73 103.846 36.952 104.082 37.24C104.322 37.524 104.464 37.856 104.508 38.236L103.416 38.434C103.364 38.086 103.196 37.812 102.912 37.612C102.632 37.412 102.27 37.306 101.826 37.294C101.406 37.278 101.064 37.352 100.8 37.516C100.54 37.68 100.41 37.902 100.41 38.182C100.41 38.338 100.458 38.472 100.554 38.584C100.654 38.696 100.836 38.802 101.1 38.902C101.368 39.002 101.756 39.116 102.264 39.244C102.836 39.388 103.286 39.546 103.614 39.718C103.946 39.886 104.182 40.086 104.322 40.318C104.462 40.546 104.532 40.828 104.532 41.164C104.532 41.788 104.302 42.28 103.842 42.64C103.382 42.996 102.748 43.174 101.94 43.174ZM105.976 35.374V34.27H107.044V35.374H105.976ZM105.976 43V36.52H107.044V43H105.976ZM108.964 43V34.18H110.032V43H108.964ZM112.732 45.88L113.986 42.472L114.004 43.48L111.172 36.52H112.294L114.514 42.118H114.13L116.212 36.52H117.298L113.77 45.88H112.732ZM123.14 43.174C122.368 43.174 121.734 43.006 121.238 42.67C120.746 42.33 120.444 41.856 120.332 41.248L121.424 41.074C121.512 41.426 121.714 41.706 122.03 41.914C122.346 42.118 122.738 42.22 123.206 42.22C123.65 42.22 123.998 42.128 124.25 41.944C124.502 41.76 124.628 41.51 124.628 41.194C124.628 41.01 124.586 40.862 124.502 40.75C124.418 40.634 124.244 40.526 123.98 40.426C123.72 40.326 123.326 40.206 122.798 40.066C122.226 39.914 121.776 39.756 121.448 39.592C121.12 39.428 120.886 39.238 120.746 39.022C120.606 38.806 120.536 38.544 120.536 38.236C120.536 37.856 120.64 37.524 120.848 37.24C121.056 36.952 121.346 36.73 121.718 36.574C122.094 36.418 122.53 36.34 123.026 36.34C123.518 36.34 123.958 36.418 124.346 36.574C124.734 36.73 125.046 36.952 125.282 37.24C125.522 37.524 125.664 37.856 125.708 38.236L124.616 38.434C124.564 38.086 124.396 37.812 124.112 37.612C123.832 37.412 123.47 37.306 123.026 37.294C122.606 37.278 122.264 37.352 122 37.516C121.74 37.68 121.61 37.902 121.61 38.182C121.61 38.338 121.658 38.472 121.754 38.584C121.854 38.696 122.036 38.802 122.3 38.902C122.568 39.002 122.956 39.116 123.464 39.244C124.036 39.388 124.486 39.546 124.814 39.718C125.146 39.886 125.382 40.086 125.522 40.318C125.662 40.546 125.732 40.828 125.732 41.164C125.732 41.788 125.502 42.28 125.042 42.64C124.582 42.996 123.948 43.174 123.14 43.174ZM129.863 43.18C129.227 43.18 128.671 43.04 128.195 42.76C127.723 42.476 127.355 42.082 127.091 41.578C126.827 41.07 126.695 40.478 126.695 39.802C126.695 39.094 126.825 38.482 127.085 37.966C127.345 37.446 127.707 37.046 128.171 36.766C128.639 36.482 129.187 36.34 129.815 36.34C130.467 36.34 131.021 36.49 131.477 36.79C131.937 37.09 132.281 37.518 132.509 38.074C132.741 38.63 132.841 39.292 132.809 40.06H131.729V39.676C131.717 38.88 131.555 38.286 131.243 37.894C130.931 37.498 130.467 37.3 129.851 37.3C129.191 37.3 128.689 37.512 128.345 37.936C128.001 38.36 127.829 38.968 127.829 39.76C127.829 40.524 128.001 41.116 128.345 41.536C128.689 41.956 129.179 42.166 129.815 42.166C130.243 42.166 130.615 42.068 130.931 41.872C131.247 41.676 131.495 41.394 131.675 41.026L132.701 41.38C132.449 41.952 132.069 42.396 131.561 42.712C131.057 43.024 130.491 43.18 129.863 43.18ZM127.469 40.06V39.202H132.257V40.06H127.469ZM136.953 43.18C136.317 43.18 135.761 43.04 135.285 42.76C134.813 42.476 134.445 42.082 134.181 41.578C133.917 41.07 133.785 40.478 133.785 39.802C133.785 39.094 133.915 38.482 134.175 37.966C134.435 37.446 134.797 37.046 135.261 36.766C135.729 36.482 136.277 36.34 136.905 36.34C137.557 36.34 138.111 36.49 138.567 36.79C139.027 37.09 139.371 37.518 139.599 38.074C139.831 38.63 139.931 39.292 139.899 40.06H138.819V39.676C138.807 38.88 138.645 38.286 138.333 37.894C138.021 37.498 137.557 37.3 136.941 37.3C136.281 37.3 135.779 37.512 135.435 37.936C135.091 38.36 134.919 38.968 134.919 39.76C134.919 40.524 135.091 41.116 135.435 41.536C135.779 41.956 136.269 42.166 136.905 42.166C137.333 42.166 137.705 42.068 138.021 41.872C138.337 41.676 138.585 41.394 138.765 41.026L139.791 41.38C139.539 41.952 139.159 42.396 138.651 42.712C138.147 43.024 137.581 43.18 136.953 43.18ZM134.559 40.06V39.202H139.347V40.06H134.559ZM148.251 43V39.754C148.251 39.446 148.223 39.15 148.167 38.866C148.115 38.582 148.021 38.328 147.885 38.104C147.753 37.876 147.573 37.696 147.345 37.564C147.121 37.432 146.837 37.366 146.493 37.366C146.225 37.366 145.981 37.412 145.761 37.504C145.545 37.592 145.359 37.728 145.203 37.912C145.047 38.096 144.925 38.328 144.837 38.608C144.753 38.884 144.711 39.21 144.711 39.586L144.009 39.37C144.009 38.742 144.121 38.204 144.345 37.756C144.573 37.304 144.891 36.958 145.299 36.718C145.711 36.474 146.195 36.352 146.751 36.352C147.171 36.352 147.529 36.418 147.825 36.55C148.121 36.682 148.367 36.858 148.563 37.078C148.759 37.294 148.913 37.538 149.025 37.81C149.137 38.078 149.215 38.352 149.259 38.632C149.307 38.908 149.331 39.17 149.331 39.418V43H148.251ZM143.631 43V34.36H144.591V39.13H144.711V43H143.631ZM153.651 43.18C153.007 43.18 152.451 43.034 151.983 42.742C151.519 42.45 151.161 42.046 150.909 41.53C150.657 41.014 150.531 40.422 150.531 39.754C150.531 39.074 150.659 38.478 150.915 37.966C151.171 37.454 151.533 37.056 152.001 36.772C152.469 36.484 153.019 36.34 153.651 36.34C154.299 36.34 154.857 36.486 155.325 36.778C155.793 37.066 156.151 37.468 156.399 37.984C156.651 38.496 156.777 39.086 156.777 39.754C156.777 40.43 156.651 41.026 156.399 41.542C156.147 42.054 155.787 42.456 155.319 42.748C154.851 43.036 154.295 43.18 153.651 43.18ZM153.651 42.166C154.323 42.166 154.823 41.942 155.151 41.494C155.479 41.046 155.643 40.466 155.643 39.754C155.643 39.022 155.477 38.44 155.145 38.008C154.813 37.572 154.315 37.354 153.651 37.354C153.199 37.354 152.827 37.456 152.535 37.66C152.243 37.864 152.025 38.146 151.881 38.506C151.737 38.866 151.665 39.282 151.665 39.754C151.665 40.482 151.833 41.066 152.169 41.506C152.505 41.946 152.999 42.166 153.651 42.166ZM159.243 43L157.263 36.514L158.325 36.52L159.771 41.26L161.229 36.52H162.171L163.623 41.26L165.075 36.52H166.131L164.151 43H163.263L161.697 38.074L160.131 43H159.243ZM177.363 43L177.369 38.854C177.369 38.37 177.239 37.992 176.979 37.72C176.723 37.444 176.389 37.306 175.977 37.306C175.737 37.306 175.509 37.362 175.293 37.474C175.077 37.582 174.901 37.754 174.765 37.99C174.629 38.222 174.561 38.52 174.561 38.884L173.997 38.656C173.989 38.196 174.083 37.794 174.279 37.45C174.479 37.102 174.751 36.832 175.095 36.64C175.439 36.448 175.827 36.352 176.259 36.352C176.935 36.352 177.467 36.558 177.855 36.97C178.243 37.378 178.437 37.928 178.437 38.62L178.431 43H177.363ZM169.611 43V36.52H170.565V38.254H170.685V43H169.611ZM173.493 43L173.499 38.896C173.499 38.4 173.371 38.012 173.115 37.732C172.859 37.448 172.519 37.306 172.095 37.306C171.675 37.306 171.335 37.45 171.075 37.738C170.815 38.026 170.685 38.408 170.685 38.884L170.121 38.548C170.121 38.128 170.221 37.752 170.421 37.42C170.621 37.088 170.893 36.828 171.237 36.64C171.581 36.448 171.971 36.352 172.407 36.352C172.843 36.352 173.223 36.444 173.547 36.628C173.871 36.812 174.121 37.076 174.297 37.42C174.473 37.76 174.561 38.166 174.561 38.638L174.555 43H173.493ZM182.46 43.168C182.044 43.168 181.686 43.102 181.386 42.97C181.09 42.838 180.844 42.662 180.648 42.442C180.452 42.222 180.298 41.978 180.186 41.71C180.074 41.442 179.994 41.168 179.946 40.888C179.902 40.608 179.88 40.346 179.88 40.102V36.52H180.96V39.766C180.96 40.07 180.988 40.364 181.044 40.648C181.1 40.932 181.194 41.188 181.326 41.416C181.462 41.644 181.642 41.824 181.866 41.956C182.094 42.088 182.378 42.154 182.718 42.154C182.986 42.154 183.23 42.108 183.45 42.016C183.67 41.924 183.858 41.788 184.014 41.608C184.17 41.424 184.29 41.192 184.374 40.912C184.458 40.632 184.5 40.306 184.5 39.934L185.202 40.15C185.202 40.774 185.088 41.312 184.86 41.764C184.636 42.216 184.318 42.564 183.906 42.808C183.498 43.048 183.016 43.168 182.46 43.168ZM184.62 43V41.266H184.5V36.52H185.574V43H184.62ZM189.984 43.18C189.328 43.18 188.77 43.034 188.31 42.742C187.854 42.446 187.506 42.04 187.266 41.524C187.026 41.008 186.902 40.42 186.894 39.76C186.902 39.084 187.028 38.49 187.272 37.978C187.52 37.462 187.874 37.06 188.334 36.772C188.794 36.484 189.348 36.34 189.996 36.34C190.68 36.34 191.268 36.508 191.76 36.844C192.256 37.18 192.588 37.64 192.756 38.224L191.7 38.542C191.564 38.166 191.342 37.874 191.034 37.666C190.73 37.458 190.38 37.354 189.984 37.354C189.54 37.354 189.174 37.458 188.886 37.666C188.598 37.87 188.384 38.154 188.244 38.518C188.104 38.878 188.032 39.292 188.028 39.76C188.036 40.48 188.202 41.062 188.526 41.506C188.854 41.946 189.34 42.166 189.984 42.166C190.408 42.166 190.76 42.07 191.04 41.878C191.32 41.682 191.532 41.4 191.676 41.032L192.756 41.314C192.532 41.918 192.182 42.38 191.706 42.7C191.23 43.02 190.656 43.18 189.984 43.18ZM198.595 43V39.754C198.595 39.446 198.567 39.15 198.511 38.866C198.459 38.582 198.365 38.328 198.229 38.104C198.097 37.876 197.917 37.696 197.689 37.564C197.465 37.432 197.181 37.366 196.837 37.366C196.569 37.366 196.325 37.412 196.105 37.504C195.889 37.592 195.703 37.728 195.547 37.912C195.391 38.096 195.269 38.328 195.181 38.608C195.097 38.884 195.055 39.21 195.055 39.586L194.353 39.37C194.353 38.742 194.465 38.204 194.689 37.756C194.917 37.304 195.235 36.958 195.643 36.718C196.055 36.474 196.539 36.352 197.095 36.352C197.515 36.352 197.873 36.418 198.169 36.55C198.465 36.682 198.711 36.858 198.907 37.078C199.103 37.294 199.257 37.538 199.369 37.81C199.481 38.078 199.559 38.352 199.603 38.632C199.651 38.908 199.675 39.17 199.675 39.418V43H198.595ZM193.975 43V34.36H194.935V39.13H195.055V43H193.975ZM204.537 45.88L205.791 42.472L205.809 43.48L202.977 36.52H204.099L206.319 42.118H205.935L208.017 36.52H209.103L205.575 45.88H204.537ZM212.62 43.18C211.976 43.18 211.42 43.034 210.952 42.742C210.488 42.45 210.13 42.046 209.878 41.53C209.626 41.014 209.5 40.422 209.5 39.754C209.5 39.074 209.628 38.478 209.884 37.966C210.14 37.454 210.502 37.056 210.97 36.772C211.438 36.484 211.988 36.34 212.62 36.34C213.268 36.34 213.826 36.486 214.294 36.778C214.762 37.066 215.12 37.468 215.368 37.984C215.62 38.496 215.746 39.086 215.746 39.754C215.746 40.43 215.62 41.026 215.368 41.542C215.116 42.054 214.756 42.456 214.288 42.748C213.82 43.036 213.264 43.18 212.62 43.18ZM212.62 42.166C213.292 42.166 213.792 41.942 214.12 41.494C214.448 41.046 214.612 40.466 214.612 39.754C214.612 39.022 214.446 38.44 214.114 38.008C213.782 37.572 213.284 37.354 212.62 37.354C212.168 37.354 211.796 37.456 211.504 37.66C211.212 37.864 210.994 38.146 210.85 38.506C210.706 38.866 210.634 39.282 210.634 39.754C210.634 40.482 210.802 41.066 211.138 41.506C211.474 41.946 211.968 42.166 212.62 42.166ZM219.527 43.168C219.111 43.168 218.753 43.102 218.453 42.97C218.157 42.838 217.911 42.662 217.715 42.442C217.519 42.222 217.365 41.978 217.253 41.71C217.141 41.442 217.061 41.168 217.013 40.888C216.969 40.608 216.947 40.346 216.947 40.102V36.52H218.027V39.766C218.027 40.07 218.055 40.364 218.111 40.648C218.167 40.932 218.261 41.188 218.393 41.416C218.529 41.644 218.709 41.824 218.933 41.956C219.161 42.088 219.445 42.154 219.785 42.154C220.053 42.154 220.297 42.108 220.517 42.016C220.737 41.924 220.925 41.788 221.081 41.608C221.237 41.424 221.357 41.192 221.441 40.912C221.525 40.632 221.567 40.306 221.567 39.934L222.269 40.15C222.269 40.774 222.155 41.312 221.927 41.764C221.703 42.216 221.385 42.564 220.973 42.808C220.565 43.048 220.083 43.168 219.527 43.168ZM221.687 43V41.266H221.567V36.52H222.641V43H221.687ZM224.32 43V36.52H225.274V38.086L225.118 37.882C225.194 37.682 225.292 37.498 225.412 37.33C225.536 37.162 225.674 37.024 225.826 36.916C225.994 36.78 226.184 36.676 226.396 36.604C226.608 36.532 226.824 36.49 227.044 36.478C227.264 36.462 227.47 36.476 227.662 36.52V37.522C227.438 37.462 227.192 37.446 226.924 37.474C226.656 37.502 226.408 37.6 226.18 37.768C225.972 37.916 225.81 38.096 225.694 38.308C225.582 38.52 225.504 38.75 225.46 38.998C225.416 39.242 225.394 39.492 225.394 39.748V43H224.32ZM234.175 43.18C233.567 43.18 233.055 43.03 232.639 42.73C232.223 42.426 231.907 42.016 231.691 41.5C231.479 40.98 231.373 40.398 231.373 39.754C231.373 39.102 231.479 38.518 231.691 38.002C231.907 37.486 232.223 37.08 232.639 36.784C233.059 36.488 233.573 36.34 234.181 36.34C234.781 36.34 235.297 36.49 235.729 36.79C236.165 37.086 236.499 37.492 236.731 38.008C236.963 38.524 237.079 39.106 237.079 39.754C237.079 40.402 236.963 40.984 236.731 41.5C236.499 42.016 236.165 42.426 235.729 42.73C235.297 43.03 234.779 43.18 234.175 43.18ZM231.193 43V34.36H232.267V38.23H232.147V43H231.193ZM234.043 42.202C234.471 42.202 234.825 42.094 235.105 41.878C235.385 41.662 235.595 41.37 235.735 41.002C235.875 40.63 235.945 40.214 235.945 39.754C235.945 39.298 235.875 38.886 235.735 38.518C235.599 38.15 235.387 37.858 235.099 37.642C234.815 37.426 234.453 37.318 234.013 37.318C233.593 37.318 233.245 37.422 232.969 37.63C232.693 37.834 232.487 38.12 232.351 38.488C232.215 38.852 232.147 39.274 232.147 39.754C232.147 40.226 232.213 40.648 232.345 41.02C232.481 41.388 232.689 41.678 232.969 41.89C233.249 42.098 233.607 42.202 234.043 42.202ZM240.855 43.168C240.439 43.168 240.081 43.102 239.781 42.97C239.485 42.838 239.239 42.662 239.043 42.442C238.847 42.222 238.693 41.978 238.581 41.71C238.469 41.442 238.389 41.168 238.341 40.888C238.297 40.608 238.275 40.346 238.275 40.102V36.52H239.355V39.766C239.355 40.07 239.383 40.364 239.439 40.648C239.495 40.932 239.589 41.188 239.721 41.416C239.857 41.644 240.037 41.824 240.261 41.956C240.489 42.088 240.773 42.154 241.113 42.154C241.381 42.154 241.625 42.108 241.845 42.016C242.065 41.924 242.253 41.788 242.409 41.608C242.565 41.424 242.685 41.192 242.769 40.912C242.853 40.632 242.895 40.306 242.895 39.934L243.597 40.15C243.597 40.774 243.483 41.312 243.255 41.764C243.031 42.216 242.713 42.564 242.301 42.808C241.893 43.048 241.411 43.168 240.855 43.168ZM243.015 43V41.266H242.895V36.52H243.969V43H243.015ZM248.097 43.174C247.325 43.174 246.691 43.006 246.195 42.67C245.703 42.33 245.401 41.856 245.289 41.248L246.381 41.074C246.469 41.426 246.671 41.706 246.987 41.914C247.303 42.118 247.695 42.22 248.163 42.22C248.607 42.22 248.955 42.128 249.207 41.944C249.459 41.76 249.585 41.51 249.585 41.194C249.585 41.01 249.543 40.862 249.459 40.75C249.375 40.634 249.201 40.526 248.937 40.426C248.677 40.326 248.283 40.206 247.755 40.066C247.183 39.914 246.733 39.756 246.405 39.592C246.077 39.428 245.843 39.238 245.703 39.022C245.563 38.806 245.493 38.544 245.493 38.236C245.493 37.856 245.597 37.524 245.805 37.24C246.013 36.952 246.303 36.73 246.675 36.574C247.051 36.418 247.487 36.34 247.983 36.34C248.475 36.34 248.915 36.418 249.303 36.574C249.691 36.73 250.003 36.952 250.239 37.24C250.479 37.524 250.621 37.856 250.665 38.236L249.573 38.434C249.521 38.086 249.353 37.812 249.069 37.612C248.789 37.412 248.427 37.306 247.983 37.294C247.563 37.278 247.221 37.352 246.957 37.516C246.697 37.68 246.567 37.902 246.567 38.182C246.567 38.338 246.615 38.472 246.711 38.584C246.811 38.696 246.993 38.802 247.257 38.902C247.525 39.002 247.913 39.116 248.421 39.244C248.993 39.388 249.443 39.546 249.771 39.718C250.103 39.886 250.339 40.086 250.479 40.318C250.619 40.546 250.689 40.828 250.689 41.164C250.689 41.788 250.459 42.28 249.999 42.64C249.539 42.996 248.905 43.174 248.097 43.174ZM252.132 35.374V34.27H253.2V35.374H252.132ZM252.132 43V36.52H253.2V43H252.132ZM259.614 43V39.754C259.614 39.446 259.586 39.15 259.53 38.866C259.478 38.582 259.384 38.328 259.248 38.104C259.116 37.876 258.936 37.696 258.708 37.564C258.484 37.432 258.2 37.366 257.856 37.366C257.588 37.366 257.344 37.412 257.124 37.504C256.908 37.592 256.722 37.728 256.566 37.912C256.41 38.096 256.288 38.328 256.2 38.608C256.116 38.884 256.074 39.21 256.074 39.586L255.372 39.37C255.372 38.742 255.484 38.204 255.708 37.756C255.936 37.304 256.254 36.958 256.662 36.718C257.074 36.474 257.558 36.352 258.114 36.352C258.534 36.352 258.892 36.418 259.188 36.55C259.484 36.682 259.73 36.858 259.926 37.078C260.122 37.294 260.276 37.538 260.388 37.81C260.5 38.078 260.578 38.352 260.622 38.632C260.67 38.908 260.694 39.17 260.694 39.418V43H259.614ZM254.994 43V36.52H255.954V38.254H256.074V43H254.994ZM265.003 43.18C264.367 43.18 263.811 43.04 263.335 42.76C262.863 42.476 262.495 42.082 262.231 41.578C261.967 41.07 261.835 40.478 261.835 39.802C261.835 39.094 261.965 38.482 262.225 37.966C262.485 37.446 262.847 37.046 263.311 36.766C263.779 36.482 264.327 36.34 264.955 36.34C265.607 36.34 266.161 36.49 266.617 36.79C267.077 37.09 267.421 37.518 267.649 38.074C267.881 38.63 267.981 39.292 267.949 40.06H266.869V39.676C266.857 38.88 266.695 38.286 266.383 37.894C266.071 37.498 265.607 37.3 264.991 37.3C264.331 37.3 263.829 37.512 263.485 37.936C263.141 38.36 262.969 38.968 262.969 39.76C262.969 40.524 263.141 41.116 263.485 41.536C263.829 41.956 264.319 42.166 264.955 42.166C265.383 42.166 265.755 42.068 266.071 41.872C266.387 41.676 266.635 41.394 266.815 41.026L267.841 41.38C267.589 41.952 267.209 42.396 266.701 42.712C266.197 43.024 265.631 43.18 265.003 43.18ZM262.609 40.06V39.202H267.397V40.06H262.609ZM271.733 43.174C270.961 43.174 270.327 43.006 269.831 42.67C269.339 42.33 269.037 41.856 268.925 41.248L270.017 41.074C270.105 41.426 270.307 41.706 270.623 41.914C270.939 42.118 271.331 42.22 271.799 42.22C272.243 42.22 272.591 42.128 272.843 41.944C273.095 41.76 273.221 41.51 273.221 41.194C273.221 41.01 273.179 40.862 273.095 40.75C273.011 40.634 272.837 40.526 272.573 40.426C272.313 40.326 271.919 40.206 271.391 40.066C270.819 39.914 270.369 39.756 270.041 39.592C269.713 39.428 269.479 39.238 269.339 39.022C269.199 38.806 269.129 38.544 269.129 38.236C269.129 37.856 269.233 37.524 269.441 37.24C269.649 36.952 269.939 36.73 270.311 36.574C270.687 36.418 271.123 36.34 271.619 36.34C272.111 36.34 272.551 36.418 272.939 36.574C273.327 36.73 273.639 36.952 273.875 37.24C274.115 37.524 274.257 37.856 274.301 38.236L273.209 38.434C273.157 38.086 272.989 37.812 272.705 37.612C272.425 37.412 272.063 37.306 271.619 37.294C271.199 37.278 270.857 37.352 270.593 37.516C270.333 37.68 270.203 37.902 270.203 38.182C270.203 38.338 270.251 38.472 270.347 38.584C270.447 38.696 270.629 38.802 270.893 38.902C271.161 39.002 271.549 39.116 272.057 39.244C272.629 39.388 273.079 39.546 273.407 39.718C273.739 39.886 273.975 40.086 274.115 40.318C274.255 40.546 274.325 40.828 274.325 41.164C274.325 41.788 274.095 42.28 273.635 42.64C273.175 42.996 272.541 43.174 271.733 43.174ZM278.097 43.174C277.325 43.174 276.691 43.006 276.195 42.67C275.703 42.33 275.401 41.856 275.289 41.248L276.381 41.074C276.469 41.426 276.671 41.706 276.987 41.914C277.303 42.118 277.695 42.22 278.163 42.22C278.607 42.22 278.955 42.128 279.207 41.944C279.459 41.76 279.585 41.51 279.585 41.194C279.585 41.01 279.543 40.862 279.459 40.75C279.375 40.634 279.201 40.526 278.937 40.426C278.677 40.326 278.283 40.206 277.755 40.066C277.183 39.914 276.733 39.756 276.405 39.592C276.077 39.428 275.843 39.238 275.703 39.022C275.563 38.806 275.493 38.544 275.493 38.236C275.493 37.856 275.597 37.524 275.805 37.24C276.013 36.952 276.303 36.73 276.675 36.574C277.051 36.418 277.487 36.34 277.983 36.34C278.475 36.34 278.915 36.418 279.303 36.574C279.691 36.73 280.003 36.952 280.239 37.24C280.479 37.524 280.621 37.856 280.665 38.236L279.573 38.434C279.521 38.086 279.353 37.812 279.069 37.612C278.789 37.412 278.427 37.306 277.983 37.294C277.563 37.278 277.221 37.352 276.957 37.516C276.697 37.68 276.567 37.902 276.567 38.182C276.567 38.338 276.615 38.472 276.711 38.584C276.811 38.696 276.993 38.802 277.257 38.902C277.525 39.002 277.913 39.116 278.421 39.244C278.993 39.388 279.443 39.546 279.771 39.718C280.103 39.886 280.339 40.086 280.479 40.318C280.619 40.546 280.689 40.828 280.689 41.164C280.689 41.788 280.459 42.28 279.999 42.64C279.539 42.996 278.905 43.174 278.097 43.174ZM284.82 43.18C284.184 43.18 283.628 43.04 283.152 42.76C282.68 42.476 282.312 42.082 282.048 41.578C281.784 41.07 281.652 40.478 281.652 39.802C281.652 39.094 281.782 38.482 282.042 37.966C282.302 37.446 282.664 37.046 283.128 36.766C283.596 36.482 284.144 36.34 284.772 36.34C285.424 36.34 285.978 36.49 286.434 36.79C286.894 37.09 287.238 37.518 287.466 38.074C287.698 38.63 287.798 39.292 287.766 40.06H286.686V39.676C286.674 38.88 286.512 38.286 286.2 37.894C285.888 37.498 285.424 37.3 284.808 37.3C284.148 37.3 283.646 37.512 283.302 37.936C282.958 38.36 282.786 38.968 282.786 39.76C282.786 40.524 282.958 41.116 283.302 41.536C283.646 41.956 284.136 42.166 284.772 42.166C285.2 42.166 285.572 42.068 285.888 41.872C286.204 41.676 286.452 41.394 286.632 41.026L287.658 41.38C287.406 41.952 287.026 42.396 286.518 42.712C286.014 43.024 285.448 43.18 284.82 43.18ZM282.426 40.06V39.202H287.214V40.06H282.426ZM291.55 43.174C290.778 43.174 290.144 43.006 289.648 42.67C289.156 42.33 288.854 41.856 288.742 41.248L289.834 41.074C289.922 41.426 290.124 41.706 290.44 41.914C290.756 42.118 291.148 42.22 291.616 42.22C292.06 42.22 292.408 42.128 292.66 41.944C292.912 41.76 293.038 41.51 293.038 41.194C293.038 41.01 292.996 40.862 292.912 40.75C292.828 40.634 292.654 40.526 292.39 40.426C292.13 40.326 291.736 40.206 291.208 40.066C290.636 39.914 290.186 39.756 289.858 39.592C289.53 39.428 289.296 39.238 289.156 39.022C289.016 38.806 288.946 38.544 288.946 38.236C288.946 37.856 289.05 37.524 289.258 37.24C289.466 36.952 289.756 36.73 290.128 36.574C290.504 36.418 290.94 36.34 291.436 36.34C291.928 36.34 292.368 36.418 292.756 36.574C293.144 36.73 293.456 36.952 293.692 37.24C293.932 37.524 294.074 37.856 294.118 38.236L293.026 38.434C292.974 38.086 292.806 37.812 292.522 37.612C292.242 37.412 291.88 37.306 291.436 37.294C291.016 37.278 290.674 37.352 290.41 37.516C290.15 37.68 290.02 37.902 290.02 38.182C290.02 38.338 290.068 38.472 290.164 38.584C290.264 38.696 290.446 38.802 290.71 38.902C290.978 39.002 291.366 39.116 291.874 39.244C292.446 39.388 292.896 39.546 293.224 39.718C293.556 39.886 293.792 40.086 293.932 40.318C294.072 40.546 294.142 40.828 294.142 41.164C294.142 41.788 293.912 42.28 293.452 42.64C292.992 42.996 292.358 43.174 291.55 43.174ZM299.709 43.18C299.225 43.18 298.819 43.092 298.491 42.916C298.167 42.736 297.921 42.5 297.753 42.208C297.589 41.916 297.507 41.596 297.507 41.248C297.507 40.908 297.571 40.614 297.699 40.366C297.831 40.114 298.015 39.906 298.251 39.742C298.487 39.574 298.769 39.442 299.097 39.346C299.405 39.262 299.749 39.19 300.129 39.13C300.513 39.066 300.901 39.008 301.293 38.956C301.685 38.904 302.051 38.854 302.391 38.806L302.007 39.028C302.019 38.452 301.903 38.026 301.659 37.75C301.419 37.474 301.003 37.336 300.411 37.336C300.019 37.336 299.675 37.426 299.379 37.606C299.087 37.782 298.881 38.07 298.761 38.47L297.747 38.164C297.903 37.596 298.205 37.15 298.653 36.826C299.101 36.502 299.691 36.34 300.423 36.34C301.011 36.34 301.515 36.446 301.935 36.658C302.359 36.866 302.663 37.182 302.847 37.606C302.939 37.806 302.997 38.024 303.021 38.26C303.045 38.492 303.057 38.736 303.057 38.992V43H302.109V41.446L302.331 41.59C302.087 42.114 301.745 42.51 301.305 42.778C300.869 43.046 300.337 43.18 299.709 43.18ZM299.871 42.286C300.255 42.286 300.587 42.218 300.867 42.082C301.151 41.942 301.379 41.76 301.551 41.536C301.723 41.308 301.835 41.06 301.887 40.792C301.947 40.592 301.979 40.37 301.983 40.126C301.991 39.878 301.995 39.688 301.995 39.556L302.367 39.718C302.019 39.766 301.677 39.812 301.341 39.856C301.005 39.9 300.687 39.948 300.387 40C300.087 40.048 299.817 40.106 299.577 40.174C299.401 40.23 299.235 40.302 299.079 40.39C298.927 40.478 298.803 40.592 298.707 40.732C298.615 40.868 298.569 41.038 298.569 41.242C298.569 41.418 298.613 41.586 298.701 41.746C298.793 41.906 298.933 42.036 299.121 42.136C299.313 42.236 299.563 42.286 299.871 42.286ZM304.617 43V36.52H305.571V38.086L305.415 37.882C305.491 37.682 305.589 37.498 305.709 37.33C305.833 37.162 305.971 37.024 306.123 36.916C306.291 36.78 306.481 36.676 306.693 36.604C306.905 36.532 307.121 36.49 307.341 36.478C307.561 36.462 307.767 36.476 307.959 36.52V37.522C307.735 37.462 307.489 37.446 307.221 37.474C306.953 37.502 306.705 37.6 306.477 37.768C306.269 37.916 306.107 38.096 305.991 38.308C305.879 38.52 305.801 38.75 305.757 38.998C305.713 39.242 305.691 39.492 305.691 39.748V43H304.617ZM311.785 43.18C311.149 43.18 310.593 43.04 310.117 42.76C309.645 42.476 309.277 42.082 309.013 41.578C308.749 41.07 308.617 40.478 308.617 39.802C308.617 39.094 308.747 38.482 309.007 37.966C309.267 37.446 309.629 37.046 310.093 36.766C310.561 36.482 311.109 36.34 311.737 36.34C312.389 36.34 312.943 36.49 313.399 36.79C313.859 37.09 314.203 37.518 314.431 38.074C314.663 38.63 314.763 39.292 314.731 40.06H313.651V39.676C313.639 38.88 313.477 38.286 313.165 37.894C312.853 37.498 312.389 37.3 311.773 37.3C311.113 37.3 310.611 37.512 310.267 37.936C309.923 38.36 309.751 38.968 309.751 39.76C309.751 40.524 309.923 41.116 310.267 41.536C310.611 41.956 311.101 42.166 311.737 42.166C312.165 42.166 312.537 42.068 312.853 41.872C313.169 41.676 313.417 41.394 313.597 41.026L314.623 41.38C314.371 41.952 313.991 42.396 313.483 42.712C312.979 43.024 312.413 43.18 311.785 43.18ZM309.391 40.06V39.202H314.179V40.06H309.391ZM321.277 43.18C320.641 43.18 320.085 43.04 319.609 42.76C319.137 42.476 318.769 42.082 318.505 41.578C318.241 41.07 318.109 40.478 318.109 39.802C318.109 39.094 318.239 38.482 318.499 37.966C318.759 37.446 319.121 37.046 319.585 36.766C320.053 36.482 320.601 36.34 321.229 36.34C321.881 36.34 322.435 36.49 322.891 36.79C323.351 37.09 323.695 37.518 323.923 38.074C324.155 38.63 324.255 39.292 324.223 40.06H323.143V39.676C323.131 38.88 322.969 38.286 322.657 37.894C322.345 37.498 321.881 37.3 321.265 37.3C320.605 37.3 320.103 37.512 319.759 37.936C319.415 38.36 319.243 38.968 319.243 39.76C319.243 40.524 319.415 41.116 319.759 41.536C320.103 41.956 320.593 42.166 321.229 42.166C321.657 42.166 322.029 42.068 322.345 41.872C322.661 41.676 322.909 41.394 323.089 41.026L324.115 41.38C323.863 41.952 323.483 42.396 322.975 42.712C322.471 43.024 321.905 43.18 321.277 43.18ZM318.883 40.06V39.202H323.671V40.06H318.883ZM327.284 43.18C326.8 43.18 326.394 43.092 326.066 42.916C325.742 42.736 325.496 42.5 325.328 42.208C325.164 41.916 325.082 41.596 325.082 41.248C325.082 40.908 325.146 40.614 325.274 40.366C325.406 40.114 325.59 39.906 325.826 39.742C326.062 39.574 326.344 39.442 326.672 39.346C326.98 39.262 327.324 39.19 327.704 39.13C328.088 39.066 328.476 39.008 328.868 38.956C329.26 38.904 329.626 38.854 329.966 38.806L329.582 39.028C329.594 38.452 329.478 38.026 329.234 37.75C328.994 37.474 328.578 37.336 327.986 37.336C327.594 37.336 327.25 37.426 326.954 37.606C326.662 37.782 326.456 38.07 326.336 38.47L325.322 38.164C325.478 37.596 325.78 37.15 326.228 36.826C326.676 36.502 327.266 36.34 327.998 36.34C328.586 36.34 329.09 36.446 329.51 36.658C329.934 36.866 330.238 37.182 330.422 37.606C330.514 37.806 330.572 38.024 330.596 38.26C330.62 38.492 330.632 38.736 330.632 38.992V43H329.684V41.446L329.906 41.59C329.662 42.114 329.32 42.51 328.88 42.778C328.444 43.046 327.912 43.18 327.284 43.18ZM327.446 42.286C327.83 42.286 328.162 42.218 328.442 42.082C328.726 41.942 328.954 41.76 329.126 41.536C329.298 41.308 329.41 41.06 329.462 40.792C329.522 40.592 329.554 40.37 329.558 40.126C329.566 39.878 329.57 39.688 329.57 39.556L329.942 39.718C329.594 39.766 329.252 39.812 328.916 39.856C328.58 39.9 328.262 39.948 327.962 40C327.662 40.048 327.392 40.106 327.152 40.174C326.976 40.23 326.81 40.302 326.654 40.39C326.502 40.478 326.378 40.592 326.282 40.732C326.19 40.868 326.144 41.038 326.144 41.242C326.144 41.418 326.188 41.586 326.276 41.746C326.368 41.906 326.508 42.036 326.696 42.136C326.888 42.236 327.138 42.286 327.446 42.286ZM332.192 43V36.52H333.146V38.086L332.99 37.882C333.066 37.682 333.164 37.498 333.284 37.33C333.408 37.162 333.546 37.024 333.698 36.916C333.866 36.78 334.056 36.676 334.268 36.604C334.48 36.532 334.696 36.49 334.916 36.478C335.136 36.462 335.342 36.476 335.534 36.52V37.522C335.31 37.462 335.064 37.446 334.796 37.474C334.528 37.502 334.28 37.6 334.052 37.768C333.844 37.916 333.682 38.096 333.566 38.308C333.454 38.52 333.376 38.75 333.332 38.998C333.288 39.242 333.266 39.492 333.266 39.748V43H332.192ZM341.282 43V39.754C341.282 39.446 341.254 39.15 341.198 38.866C341.146 38.582 341.052 38.328 340.916 38.104C340.784 37.876 340.604 37.696 340.376 37.564C340.152 37.432 339.868 37.366 339.524 37.366C339.256 37.366 339.012 37.412 338.792 37.504C338.576 37.592 338.39 37.728 338.234 37.912C338.078 38.096 337.956 38.328 337.868 38.608C337.784 38.884 337.742 39.21 337.742 39.586L337.04 39.37C337.04 38.742 337.152 38.204 337.376 37.756C337.604 37.304 337.922 36.958 338.33 36.718C338.742 36.474 339.226 36.352 339.782 36.352C340.202 36.352 340.56 36.418 340.856 36.55C341.152 36.682 341.398 36.858 341.594 37.078C341.79 37.294 341.944 37.538 342.056 37.81C342.168 38.078 342.246 38.352 342.29 38.632C342.338 38.908 342.362 39.17 342.362 39.418V43H341.282ZM336.662 43V36.52H337.622V38.254H337.742V43H336.662ZM344.042 35.374V34.27H345.11V35.374H344.042ZM344.042 43V36.52H345.11V43H344.042ZM351.524 43V39.754C351.524 39.446 351.496 39.15 351.44 38.866C351.388 38.582 351.294 38.328 351.158 38.104C351.026 37.876 350.846 37.696 350.618 37.564C350.394 37.432 350.11 37.366 349.766 37.366C349.498 37.366 349.254 37.412 349.034 37.504C348.818 37.592 348.632 37.728 348.476 37.912C348.32 38.096 348.198 38.328 348.11 38.608C348.026 38.884 347.984 39.21 347.984 39.586L347.282 39.37C347.282 38.742 347.394 38.204 347.618 37.756C347.846 37.304 348.164 36.958 348.572 36.718C348.984 36.474 349.468 36.352 350.024 36.352C350.444 36.352 350.802 36.418 351.098 36.55C351.394 36.682 351.64 36.858 351.836 37.078C352.032 37.294 352.186 37.538 352.298 37.81C352.41 38.078 352.488 38.352 352.532 38.632C352.58 38.908 352.604 39.17 352.604 39.418V43H351.524ZM346.904 43V36.52H347.864V38.254H347.984V43H346.904ZM356.786 46.06C356.446 46.06 356.114 46.008 355.79 45.904C355.466 45.8 355.168 45.642 354.896 45.43C354.628 45.222 354.404 44.958 354.224 44.638L355.202 44.122C355.362 44.438 355.588 44.668 355.88 44.812C356.176 44.956 356.48 45.028 356.792 45.028C357.204 45.028 357.546 44.952 357.818 44.8C358.09 44.652 358.29 44.43 358.418 44.134C358.55 43.838 358.614 43.47 358.61 43.03V41.26H358.736V36.52H359.684V43.042C359.684 43.218 359.678 43.388 359.666 43.552C359.658 43.716 359.638 43.878 359.606 44.038C359.522 44.498 359.356 44.876 359.108 45.172C358.86 45.472 358.54 45.694 358.148 45.838C357.756 45.986 357.302 46.06 356.786 46.06ZM356.708 43.18C356.104 43.18 355.586 43.03 355.154 42.73C354.722 42.426 354.388 42.016 354.152 41.5C353.92 40.984 353.804 40.402 353.804 39.754C353.804 39.106 353.92 38.524 354.152 38.008C354.388 37.492 354.722 37.086 355.154 36.79C355.586 36.49 356.102 36.34 356.702 36.34C357.314 36.34 357.828 36.488 358.244 36.784C358.66 37.08 358.974 37.486 359.186 38.002C359.402 38.518 359.51 39.102 359.51 39.754C359.51 40.398 359.402 40.98 359.186 41.5C358.974 42.016 358.66 42.426 358.244 42.73C357.828 43.03 357.316 43.18 356.708 43.18ZM356.84 42.202C357.276 42.202 357.634 42.098 357.914 41.89C358.194 41.678 358.4 41.388 358.532 41.02C358.668 40.648 358.736 40.226 358.736 39.754C358.736 39.274 358.668 38.852 358.532 38.488C358.4 38.12 358.196 37.834 357.92 37.63C357.644 37.422 357.294 37.318 356.87 37.318C356.43 37.318 356.066 37.426 355.778 37.642C355.494 37.858 355.282 38.15 355.142 38.518C355.006 38.886 354.938 39.298 354.938 39.754C354.938 40.214 355.008 40.63 355.148 41.002C355.288 41.37 355.498 41.662 355.778 41.878C356.062 42.094 356.416 42.202 356.84 42.202ZM368.924 43.18C368.28 43.18 367.724 43.034 367.256 42.742C366.792 42.45 366.434 42.046 366.182 41.53C365.93 41.014 365.804 40.422 365.804 39.754C365.804 39.074 365.932 38.478 366.188 37.966C366.444 37.454 366.806 37.056 367.274 36.772C367.742 36.484 368.292 36.34 368.924 36.34C369.572 36.34 370.13 36.486 370.598 36.778C371.066 37.066 371.424 37.468 371.672 37.984C371.924 38.496 372.05 39.086 372.05 39.754C372.05 40.43 371.924 41.026 371.672 41.542C371.42 42.054 371.06 42.456 370.592 42.748C370.124 43.036 369.568 43.18 368.924 43.18ZM368.924 42.166C369.596 42.166 370.096 41.942 370.424 41.494C370.752 41.046 370.916 40.466 370.916 39.754C370.916 39.022 370.75 38.44 370.418 38.008C370.086 37.572 369.588 37.354 368.924 37.354C368.472 37.354 368.1 37.456 367.808 37.66C367.516 37.864 367.298 38.146 367.154 38.506C367.01 38.866 366.938 39.282 366.938 39.754C366.938 40.482 367.106 41.066 367.442 41.506C367.778 41.946 368.272 42.166 368.924 42.166ZM377.985 43V39.754C377.985 39.446 377.957 39.15 377.901 38.866C377.849 38.582 377.755 38.328 377.619 38.104C377.487 37.876 377.307 37.696 377.079 37.564C376.855 37.432 376.571 37.366 376.227 37.366C375.959 37.366 375.715 37.412 375.495 37.504C375.279 37.592 375.093 37.728 374.937 37.912C374.781 38.096 374.659 38.328 374.571 38.608C374.487 38.884 374.445 39.21 374.445 39.586L373.743 39.37C373.743 38.742 373.855 38.204 374.079 37.756C374.307 37.304 374.625 36.958 375.033 36.718C375.445 36.474 375.929 36.352 376.485 36.352C376.905 36.352 377.263 36.418 377.559 36.55C377.855 36.682 378.101 36.858 378.297 37.078C378.493 37.294 378.647 37.538 378.759 37.81C378.871 38.078 378.949 38.352 378.993 38.632C379.041 38.908 379.065 39.17 379.065 39.418V43H377.985ZM373.365 43V36.52H374.325V38.254H374.445V43H373.365ZM88.648 62.18C88.012 62.18 87.456 62.04 86.98 61.76C86.508 61.476 86.14 61.082 85.876 60.578C85.612 60.07 85.48 59.478 85.48 58.802C85.48 58.094 85.61 57.482 85.87 56.966C86.13 56.446 86.492 56.046 86.956 55.766C87.424 55.482 87.972 55.34 88.6 55.34C89.252 55.34 89.806 55.49 90.262 55.79C90.722 56.09 91.066 56.518 91.294 57.074C91.526 57.63 91.626 58.292 91.594 59.06H90.514V58.676C90.502 57.88 90.34 57.286 90.028 56.894C89.716 56.498 89.252 56.3 88.636 56.3C87.976 56.3 87.474 56.512 87.13 56.936C86.786 57.36 86.614 57.968 86.614 58.76C86.614 59.524 86.786 60.116 87.13 60.536C87.474 60.956 87.964 61.166 88.6 61.166C89.028 61.166 89.4 61.068 89.716 60.872C90.032 60.676 90.28 60.394 90.46 60.026L91.486 60.38C91.234 60.952 90.854 61.396 90.346 61.712C89.842 62.024 89.276 62.18 88.648 62.18ZM86.254 59.06V58.202H91.042V59.06H86.254ZM94.6547 62.18C94.1707 62.18 93.7647 62.092 93.4367 61.916C93.1127 61.736 92.8667 61.5 92.6987 61.208C92.5347 60.916 92.4527 60.596 92.4527 60.248C92.4527 59.908 92.5167 59.614 92.6447 59.366C92.7767 59.114 92.9607 58.906 93.1967 58.742C93.4327 58.574 93.7147 58.442 94.0427 58.346C94.3507 58.262 94.6947 58.19 95.0747 58.13C95.4587 58.066 95.8467 58.008 96.2387 57.956C96.6307 57.904 96.9967 57.854 97.3367 57.806L96.9527 58.028C96.9647 57.452 96.8487 57.026 96.6047 56.75C96.3647 56.474 95.9487 56.336 95.3567 56.336C94.9647 56.336 94.6207 56.426 94.3247 56.606C94.0327 56.782 93.8267 57.07 93.7067 57.47L92.6927 57.164C92.8487 56.596 93.1507 56.15 93.5987 55.826C94.0467 55.502 94.6367 55.34 95.3687 55.34C95.9567 55.34 96.4607 55.446 96.8807 55.658C97.3047 55.866 97.6087 56.182 97.7927 56.606C97.8847 56.806 97.9427 57.024 97.9667 57.26C97.9907 57.492 98.0027 57.736 98.0027 57.992V62H97.0547V60.446L97.2767 60.59C97.0327 61.114 96.6907 61.51 96.2507 61.778C95.8147 62.046 95.2827 62.18 94.6547 62.18ZM94.8167 61.286C95.2007 61.286 95.5327 61.218 95.8127 61.082C96.0967 60.942 96.3247 60.76 96.4967 60.536C96.6687 60.308 96.7807 60.06 96.8327 59.792C96.8927 59.592 96.9247 59.37 96.9287 59.126C96.9367 58.878 96.9407 58.688 96.9407 58.556L97.3127 58.718C96.9647 58.766 96.6227 58.812 96.2867 58.856C95.9507 58.9 95.6327 58.948 95.3327 59C95.0327 59.048 94.7627 59.106 94.5227 59.174C94.3467 59.23 94.1807 59.302 94.0247 59.39C93.8727 59.478 93.7487 59.592 93.6527 59.732C93.5607 59.868 93.5147 60.038 93.5147 60.242C93.5147 60.418 93.5587 60.586 93.6467 60.746C93.7387 60.906 93.8787 61.036 94.0667 61.136C94.2587 61.236 94.5087 61.286 94.8167 61.286ZM102.293 62.18C101.637 62.18 101.079 62.034 100.619 61.742C100.163 61.446 99.8147 61.04 99.5747 60.524C99.3347 60.008 99.2107 59.42 99.2027 58.76C99.2107 58.084 99.3367 57.49 99.5807 56.978C99.8287 56.462 100.183 56.06 100.643 55.772C101.103 55.484 101.657 55.34 102.305 55.34C102.989 55.34 103.577 55.508 104.069 55.844C104.565 56.18 104.897 56.64 105.065 57.224L104.009 57.542C103.873 57.166 103.651 56.874 103.343 56.666C103.039 56.458 102.689 56.354 102.293 56.354C101.849 56.354 101.483 56.458 101.195 56.666C100.907 56.87 100.693 57.154 100.553 57.518C100.413 57.878 100.341 58.292 100.337 58.76C100.345 59.48 100.511 60.062 100.835 60.506C101.163 60.946 101.649 61.166 102.293 61.166C102.717 61.166 103.069 61.07 103.349 60.878C103.629 60.682 103.841 60.4 103.985 60.032L105.065 60.314C104.841 60.918 104.491 61.38 104.015 61.7C103.539 62.02 102.965 62.18 102.293 62.18ZM110.903 62V58.754C110.903 58.446 110.875 58.15 110.819 57.866C110.767 57.582 110.673 57.328 110.537 57.104C110.405 56.876 110.225 56.696 109.997 56.564C109.773 56.432 109.489 56.366 109.145 56.366C108.877 56.366 108.633 56.412 108.413 56.504C108.197 56.592 108.011 56.728 107.855 56.912C107.699 57.096 107.577 57.328 107.489 57.608C107.405 57.884 107.363 58.21 107.363 58.586L106.661 58.37C106.661 57.742 106.773 57.204 106.997 56.756C107.225 56.304 107.543 55.958 107.951 55.718C108.363 55.474 108.847 55.352 109.403 55.352C109.823 55.352 110.181 55.418 110.477 55.55C110.773 55.682 111.019 55.858 111.215 56.078C111.411 56.294 111.565 56.538 111.677 56.81C111.789 57.078 111.867 57.352 111.911 57.632C111.959 57.908 111.983 58.17 111.983 58.418V62H110.903ZM106.283 62V53.36H107.243V58.13H107.363V62H106.283ZM119.563 62C119.179 62.076 118.799 62.106 118.423 62.09C118.051 62.078 117.719 62.004 117.427 61.868C117.135 61.728 116.913 61.512 116.761 61.22C116.633 60.964 116.563 60.706 116.551 60.446C116.543 60.182 116.539 59.884 116.539 59.552V53.72H117.607V59.504C117.607 59.768 117.609 59.994 117.613 60.182C117.621 60.37 117.663 60.532 117.739 60.668C117.883 60.924 118.111 61.074 118.423 61.118C118.739 61.162 119.119 61.15 119.563 61.082V62ZM115.225 56.402V55.52H119.563V56.402H115.225ZM120.879 62V55.52H121.833V57.086L121.677 56.882C121.753 56.682 121.851 56.498 121.971 56.33C122.095 56.162 122.233 56.024 122.385 55.916C122.553 55.78 122.743 55.676 122.955 55.604C123.167 55.532 123.383 55.49 123.603 55.478C123.823 55.462 124.029 55.476 124.221 55.52V56.522C123.997 56.462 123.751 56.446 123.483 56.474C123.215 56.502 122.967 56.6 122.739 56.768C122.531 56.916 122.369 57.096 122.253 57.308C122.141 57.52 122.063 57.75 122.019 57.998C121.975 58.242 121.953 58.492 121.953 58.748V62H120.879ZM126.987 62.18C126.503 62.18 126.097 62.092 125.769 61.916C125.445 61.736 125.199 61.5 125.031 61.208C124.867 60.916 124.785 60.596 124.785 60.248C124.785 59.908 124.849 59.614 124.977 59.366C125.109 59.114 125.293 58.906 125.529 58.742C125.765 58.574 126.047 58.442 126.375 58.346C126.683 58.262 127.027 58.19 127.407 58.13C127.791 58.066 128.179 58.008 128.571 57.956C128.963 57.904 129.329 57.854 129.669 57.806L129.285 58.028C129.297 57.452 129.181 57.026 128.937 56.75C128.697 56.474 128.281 56.336 127.689 56.336C127.297 56.336 126.953 56.426 126.657 56.606C126.365 56.782 126.159 57.07 126.039 57.47L125.025 57.164C125.181 56.596 125.483 56.15 125.931 55.826C126.379 55.502 126.969 55.34 127.701 55.34C128.289 55.34 128.793 55.446 129.213 55.658C129.637 55.866 129.941 56.182 130.125 56.606C130.217 56.806 130.275 57.024 130.299 57.26C130.323 57.492 130.335 57.736 130.335 57.992V62H129.387V60.446L129.609 60.59C129.365 61.114 129.023 61.51 128.583 61.778C128.147 62.046 127.615 62.18 126.987 62.18ZM127.149 61.286C127.533 61.286 127.865 61.218 128.145 61.082C128.429 60.942 128.657 60.76 128.829 60.536C129.001 60.308 129.113 60.06 129.165 59.792C129.225 59.592 129.257 59.37 129.261 59.126C129.269 58.878 129.273 58.688 129.273 58.556L129.645 58.718C129.297 58.766 128.955 58.812 128.619 58.856C128.283 58.9 127.965 58.948 127.665 59C127.365 59.048 127.095 59.106 126.855 59.174C126.679 59.23 126.513 59.302 126.357 59.39C126.205 59.478 126.081 59.592 125.985 59.732C125.893 59.868 125.847 60.038 125.847 60.242C125.847 60.418 125.891 60.586 125.979 60.746C126.071 60.906 126.211 61.036 126.399 61.136C126.591 61.236 126.841 61.286 127.149 61.286ZM136.509 62V58.754C136.509 58.446 136.481 58.15 136.425 57.866C136.373 57.582 136.279 57.328 136.143 57.104C136.011 56.876 135.831 56.696 135.603 56.564C135.379 56.432 135.095 56.366 134.751 56.366C134.483 56.366 134.239 56.412 134.019 56.504C133.803 56.592 133.617 56.728 133.461 56.912C133.305 57.096 133.183 57.328 133.095 57.608C133.011 57.884 132.969 58.21 132.969 58.586L132.267 58.37C132.267 57.742 132.379 57.204 132.603 56.756C132.831 56.304 133.149 55.958 133.557 55.718C133.969 55.474 134.453 55.352 135.009 55.352C135.429 55.352 135.787 55.418 136.083 55.55C136.379 55.682 136.625 55.858 136.821 56.078C137.017 56.294 137.171 56.538 137.283 56.81C137.395 57.078 137.473 57.352 137.517 57.632C137.565 57.908 137.589 58.17 137.589 58.418V62H136.509ZM131.889 62V55.52H132.849V57.254H132.969V62H131.889ZM141.597 62.174C140.825 62.174 140.191 62.006 139.695 61.67C139.203 61.33 138.901 60.856 138.789 60.248L139.881 60.074C139.969 60.426 140.171 60.706 140.487 60.914C140.803 61.118 141.195 61.22 141.663 61.22C142.107 61.22 142.455 61.128 142.707 60.944C142.959 60.76 143.085 60.51 143.085 60.194C143.085 60.01 143.043 59.862 142.959 59.75C142.875 59.634 142.701 59.526 142.437 59.426C142.177 59.326 141.783 59.206 141.255 59.066C140.683 58.914 140.233 58.756 139.905 58.592C139.577 58.428 139.343 58.238 139.203 58.022C139.063 57.806 138.993 57.544 138.993 57.236C138.993 56.856 139.097 56.524 139.305 56.24C139.513 55.952 139.803 55.73 140.175 55.574C140.551 55.418 140.987 55.34 141.483 55.34C141.975 55.34 142.415 55.418 142.803 55.574C143.191 55.73 143.503 55.952 143.739 56.24C143.979 56.524 144.121 56.856 144.165 57.236L143.073 57.434C143.021 57.086 142.853 56.812 142.569 56.612C142.289 56.412 141.927 56.306 141.483 56.294C141.063 56.278 140.721 56.352 140.457 56.516C140.197 56.68 140.067 56.902 140.067 57.182C140.067 57.338 140.115 57.472 140.211 57.584C140.311 57.696 140.493 57.802 140.757 57.902C141.025 58.002 141.413 58.116 141.921 58.244C142.493 58.388 142.943 58.546 143.271 58.718C143.603 58.886 143.839 59.086 143.979 59.318C144.119 59.546 144.189 59.828 144.189 60.164C144.189 60.788 143.959 61.28 143.499 61.64C143.039 61.996 142.405 62.174 141.597 62.174ZM147.354 62.18C146.87 62.18 146.464 62.092 146.136 61.916C145.812 61.736 145.566 61.5 145.398 61.208C145.234 60.916 145.152 60.596 145.152 60.248C145.152 59.908 145.216 59.614 145.344 59.366C145.476 59.114 145.66 58.906 145.896 58.742C146.132 58.574 146.414 58.442 146.742 58.346C147.05 58.262 147.394 58.19 147.774 58.13C148.158 58.066 148.546 58.008 148.938 57.956C149.33 57.904 149.696 57.854 150.036 57.806L149.652 58.028C149.664 57.452 149.548 57.026 149.304 56.75C149.064 56.474 148.648 56.336 148.056 56.336C147.664 56.336 147.32 56.426 147.024 56.606C146.732 56.782 146.526 57.07 146.406 57.47L145.392 57.164C145.548 56.596 145.85 56.15 146.298 55.826C146.746 55.502 147.336 55.34 148.068 55.34C148.656 55.34 149.16 55.446 149.58 55.658C150.004 55.866 150.308 56.182 150.492 56.606C150.584 56.806 150.642 57.024 150.666 57.26C150.69 57.492 150.702 57.736 150.702 57.992V62H149.754V60.446L149.976 60.59C149.732 61.114 149.39 61.51 148.95 61.778C148.514 62.046 147.982 62.18 147.354 62.18ZM147.516 61.286C147.9 61.286 148.232 61.218 148.512 61.082C148.796 60.942 149.024 60.76 149.196 60.536C149.368 60.308 149.48 60.06 149.532 59.792C149.592 59.592 149.624 59.37 149.628 59.126C149.636 58.878 149.64 58.688 149.64 58.556L150.012 58.718C149.664 58.766 149.322 58.812 148.986 58.856C148.65 58.9 148.332 58.948 148.032 59C147.732 59.048 147.462 59.106 147.222 59.174C147.046 59.23 146.88 59.302 146.724 59.39C146.572 59.478 146.448 59.592 146.352 59.732C146.26 59.868 146.214 60.038 146.214 60.242C146.214 60.418 146.258 60.586 146.346 60.746C146.438 60.906 146.578 61.036 146.766 61.136C146.958 61.236 147.208 61.286 147.516 61.286ZM154.992 62.18C154.336 62.18 153.778 62.034 153.318 61.742C152.862 61.446 152.514 61.04 152.274 60.524C152.034 60.008 151.91 59.42 151.902 58.76C151.91 58.084 152.036 57.49 152.28 56.978C152.528 56.462 152.882 56.06 153.342 55.772C153.802 55.484 154.356 55.34 155.004 55.34C155.688 55.34 156.276 55.508 156.768 55.844C157.264 56.18 157.596 56.64 157.764 57.224L156.708 57.542C156.572 57.166 156.35 56.874 156.042 56.666C155.738 56.458 155.388 56.354 154.992 56.354C154.548 56.354 154.182 56.458 153.894 56.666C153.606 56.87 153.392 57.154 153.252 57.518C153.112 57.878 153.04 58.292 153.036 58.76C153.044 59.48 153.21 60.062 153.534 60.506C153.862 60.946 154.348 61.166 154.992 61.166C155.416 61.166 155.768 61.07 156.048 60.878C156.328 60.682 156.54 60.4 156.684 60.032L157.764 60.314C157.54 60.918 157.19 61.38 156.714 61.7C156.238 62.02 155.664 62.18 154.992 62.18ZM162.606 62C162.222 62.076 161.842 62.106 161.466 62.09C161.094 62.078 160.762 62.004 160.47 61.868C160.178 61.728 159.956 61.512 159.804 61.22C159.676 60.964 159.606 60.706 159.594 60.446C159.586 60.182 159.582 59.884 159.582 59.552V53.72H160.65V59.504C160.65 59.768 160.652 59.994 160.656 60.182C160.664 60.37 160.706 60.532 160.782 60.668C160.926 60.924 161.154 61.074 161.466 61.118C161.782 61.162 162.162 61.15 162.606 61.082V62ZM158.268 56.402V55.52H162.606V56.402H158.268ZM164.042 54.374V53.27H165.11V54.374H164.042ZM164.042 62V55.52H165.11V62H164.042ZM169.67 62.18C169.026 62.18 168.47 62.034 168.002 61.742C167.538 61.45 167.18 61.046 166.928 60.53C166.676 60.014 166.55 59.422 166.55 58.754C166.55 58.074 166.678 57.478 166.934 56.966C167.19 56.454 167.552 56.056 168.02 55.772C168.488 55.484 169.038 55.34 169.67 55.34C170.318 55.34 170.876 55.486 171.344 55.778C171.812 56.066 172.17 56.468 172.418 56.984C172.67 57.496 172.796 58.086 172.796 58.754C172.796 59.43 172.67 60.026 172.418 60.542C172.166 61.054 171.806 61.456 171.338 61.748C170.87 62.036 170.314 62.18 169.67 62.18ZM169.67 61.166C170.342 61.166 170.842 60.942 171.17 60.494C171.498 60.046 171.662 59.466 171.662 58.754C171.662 58.022 171.496 57.44 171.164 57.008C170.832 56.572 170.334 56.354 169.67 56.354C169.218 56.354 168.846 56.456 168.554 56.66C168.262 56.864 168.044 57.146 167.9 57.506C167.756 57.866 167.684 58.282 167.684 58.754C167.684 59.482 167.852 60.066 168.188 60.506C168.524 60.946 169.018 61.166 169.67 61.166ZM178.731 62V58.754C178.731 58.446 178.703 58.15 178.647 57.866C178.595 57.582 178.501 57.328 178.365 57.104C178.233 56.876 178.053 56.696 177.825 56.564C177.601 56.432 177.317 56.366 176.973 56.366C176.705 56.366 176.461 56.412 176.241 56.504C176.025 56.592 175.839 56.728 175.683 56.912C175.527 57.096 175.405 57.328 175.317 57.608C175.233 57.884 175.191 58.21 175.191 58.586L174.489 58.37C174.489 57.742 174.601 57.204 174.825 56.756C175.053 56.304 175.371 55.958 175.779 55.718C176.191 55.474 176.675 55.352 177.231 55.352C177.651 55.352 178.009 55.418 178.305 55.55C178.601 55.682 178.847 55.858 179.043 56.078C179.239 56.294 179.393 56.538 179.505 56.81C179.617 57.078 179.695 57.352 179.739 57.632C179.787 57.908 179.811 58.17 179.811 58.418V62H178.731ZM174.111 62V55.52H175.071V57.254H175.191V62H174.111ZM185.616 62.18C185.132 62.18 184.726 62.092 184.398 61.916C184.074 61.736 183.828 61.5 183.66 61.208C183.496 60.916 183.414 60.596 183.414 60.248C183.414 59.908 183.478 59.614 183.606 59.366C183.738 59.114 183.922 58.906 184.158 58.742C184.394 58.574 184.676 58.442 185.004 58.346C185.312 58.262 185.656 58.19 186.036 58.13C186.42 58.066 186.808 58.008 187.2 57.956C187.592 57.904 187.958 57.854 188.298 57.806L187.914 58.028C187.926 57.452 187.81 57.026 187.566 56.75C187.326 56.474 186.91 56.336 186.318 56.336C185.926 56.336 185.582 56.426 185.286 56.606C184.994 56.782 184.788 57.07 184.668 57.47L183.654 57.164C183.81 56.596 184.112 56.15 184.56 55.826C185.008 55.502 185.598 55.34 186.33 55.34C186.918 55.34 187.422 55.446 187.842 55.658C188.266 55.866 188.57 56.182 188.754 56.606C188.846 56.806 188.904 57.024 188.928 57.26C188.952 57.492 188.964 57.736 188.964 57.992V62H188.016V60.446L188.238 60.59C187.994 61.114 187.652 61.51 187.212 61.778C186.776 62.046 186.244 62.18 185.616 62.18ZM185.778 61.286C186.162 61.286 186.494 61.218 186.774 61.082C187.058 60.942 187.286 60.76 187.458 60.536C187.63 60.308 187.742 60.06 187.794 59.792C187.854 59.592 187.886 59.37 187.89 59.126C187.898 58.878 187.902 58.688 187.902 58.556L188.274 58.718C187.926 58.766 187.584 58.812 187.248 58.856C186.912 58.9 186.594 58.948 186.294 59C185.994 59.048 185.724 59.106 185.484 59.174C185.308 59.23 185.142 59.302 184.986 59.39C184.834 59.478 184.71 59.592 184.614 59.732C184.522 59.868 184.476 60.038 184.476 60.242C184.476 60.418 184.52 60.586 184.608 60.746C184.7 60.906 184.84 61.036 185.028 61.136C185.22 61.236 185.47 61.286 185.778 61.286ZM195.138 62V58.754C195.138 58.446 195.11 58.15 195.054 57.866C195.002 57.582 194.908 57.328 194.772 57.104C194.64 56.876 194.46 56.696 194.232 56.564C194.008 56.432 193.724 56.366 193.38 56.366C193.112 56.366 192.868 56.412 192.648 56.504C192.432 56.592 192.246 56.728 192.09 56.912C191.934 57.096 191.812 57.328 191.724 57.608C191.64 57.884 191.598 58.21 191.598 58.586L190.896 58.37C190.896 57.742 191.008 57.204 191.232 56.756C191.46 56.304 191.778 55.958 192.186 55.718C192.598 55.474 193.082 55.352 193.638 55.352C194.058 55.352 194.416 55.418 194.712 55.55C195.008 55.682 195.254 55.858 195.45 56.078C195.646 56.294 195.8 56.538 195.912 56.81C196.024 57.078 196.102 57.352 196.146 57.632C196.194 57.908 196.218 58.17 196.218 58.418V62H195.138ZM190.518 62V55.52H191.478V57.254H191.598V62H190.518ZM200.263 62.18C199.659 62.18 199.141 62.03 198.709 61.73C198.277 61.426 197.943 61.016 197.707 60.5C197.475 59.984 197.359 59.402 197.359 58.754C197.359 58.106 197.475 57.524 197.707 57.008C197.943 56.492 198.277 56.086 198.709 55.79C199.141 55.49 199.657 55.34 200.257 55.34C200.869 55.34 201.383 55.488 201.799 55.784C202.215 56.08 202.529 56.486 202.741 57.002C202.957 57.518 203.065 58.102 203.065 58.754C203.065 59.398 202.957 59.98 202.741 60.5C202.529 61.016 202.215 61.426 201.799 61.73C201.383 62.03 200.871 62.18 200.263 62.18ZM200.395 61.202C200.831 61.202 201.189 61.098 201.469 60.89C201.749 60.678 201.955 60.388 202.087 60.02C202.223 59.648 202.291 59.226 202.291 58.754C202.291 58.274 202.223 57.852 202.087 57.488C201.955 57.12 201.751 56.834 201.475 56.63C201.199 56.422 200.849 56.318 200.425 56.318C199.985 56.318 199.621 56.426 199.333 56.642C199.049 56.858 198.837 57.15 198.697 57.518C198.561 57.886 198.493 58.298 198.493 58.754C198.493 59.214 198.563 59.63 198.703 60.002C198.843 60.37 199.053 60.662 199.333 60.878C199.617 61.094 199.971 61.202 200.395 61.202ZM202.291 62V57.23H202.171V53.36H203.245V62H202.291ZM208.708 62L206.728 55.514L207.79 55.52L209.236 60.26L210.694 55.52H211.636L213.088 60.26L214.54 55.52H215.596L213.616 62H212.728L211.162 57.074L209.596 62H208.708ZM218.159 62.18C217.675 62.18 217.269 62.092 216.941 61.916C216.617 61.736 216.371 61.5 216.203 61.208C216.039 60.916 215.957 60.596 215.957 60.248C215.957 59.908 216.021 59.614 216.149 59.366C216.281 59.114 216.465 58.906 216.701 58.742C216.937 58.574 217.219 58.442 217.547 58.346C217.855 58.262 218.199 58.19 218.579 58.13C218.963 58.066 219.351 58.008 219.743 57.956C220.135 57.904 220.501 57.854 220.841 57.806L220.457 58.028C220.469 57.452 220.353 57.026 220.109 56.75C219.869 56.474 219.453 56.336 218.861 56.336C218.469 56.336 218.125 56.426 217.829 56.606C217.537 56.782 217.331 57.07 217.211 57.47L216.197 57.164C216.353 56.596 216.655 56.15 217.103 55.826C217.551 55.502 218.141 55.34 218.873 55.34C219.461 55.34 219.965 55.446 220.385 55.658C220.809 55.866 221.113 56.182 221.297 56.606C221.389 56.806 221.447 57.024 221.471 57.26C221.495 57.492 221.507 57.736 221.507 57.992V62H220.559V60.446L220.781 60.59C220.537 61.114 220.195 61.51 219.755 61.778C219.319 62.046 218.787 62.18 218.159 62.18ZM218.321 61.286C218.705 61.286 219.037 61.218 219.317 61.082C219.601 60.942 219.829 60.76 220.001 60.536C220.173 60.308 220.285 60.06 220.337 59.792C220.397 59.592 220.429 59.37 220.433 59.126C220.441 58.878 220.445 58.688 220.445 58.556L220.817 58.718C220.469 58.766 220.127 58.812 219.791 58.856C219.455 58.9 219.137 58.948 218.837 59C218.537 59.048 218.267 59.106 218.027 59.174C217.851 59.23 217.685 59.302 217.529 59.39C217.377 59.478 217.253 59.592 217.157 59.732C217.065 59.868 217.019 60.038 217.019 60.242C217.019 60.418 217.063 60.586 217.151 60.746C217.243 60.906 217.383 61.036 217.571 61.136C217.763 61.236 218.013 61.286 218.321 61.286ZM226.685 62C226.301 62.076 225.921 62.106 225.545 62.09C225.173 62.078 224.841 62.004 224.549 61.868C224.257 61.728 224.035 61.512 223.883 61.22C223.755 60.964 223.685 60.706 223.673 60.446C223.665 60.182 223.661 59.884 223.661 59.552V53.72H224.729V59.504C224.729 59.768 224.731 59.994 224.735 60.182C224.743 60.37 224.785 60.532 224.861 60.668C225.005 60.924 225.233 61.074 225.545 61.118C225.861 61.162 226.241 61.15 226.685 61.082V62ZM222.347 56.402V55.52H226.685V56.402H222.347ZM230.461 62.18C229.805 62.18 229.247 62.034 228.787 61.742C228.331 61.446 227.983 61.04 227.743 60.524C227.503 60.008 227.379 59.42 227.371 58.76C227.379 58.084 227.505 57.49 227.749 56.978C227.997 56.462 228.351 56.06 228.811 55.772C229.271 55.484 229.825 55.34 230.473 55.34C231.157 55.34 231.745 55.508 232.237 55.844C232.733 56.18 233.065 56.64 233.233 57.224L232.177 57.542C232.041 57.166 231.819 56.874 231.511 56.666C231.207 56.458 230.857 56.354 230.461 56.354C230.017 56.354 229.651 56.458 229.363 56.666C229.075 56.87 228.861 57.154 228.721 57.518C228.581 57.878 228.509 58.292 228.505 58.76C228.513 59.48 228.679 60.062 229.003 60.506C229.331 60.946 229.817 61.166 230.461 61.166C230.885 61.166 231.237 61.07 231.517 60.878C231.797 60.682 232.009 60.4 232.153 60.032L233.233 60.314C233.009 60.918 232.659 61.38 232.183 61.7C231.707 62.02 231.133 62.18 230.461 62.18ZM239.071 62V58.754C239.071 58.446 239.043 58.15 238.987 57.866C238.935 57.582 238.841 57.328 238.705 57.104C238.573 56.876 238.393 56.696 238.165 56.564C237.941 56.432 237.657 56.366 237.313 56.366C237.045 56.366 236.801 56.412 236.581 56.504C236.365 56.592 236.179 56.728 236.023 56.912C235.867 57.096 235.745 57.328 235.657 57.608C235.573 57.884 235.531 58.21 235.531 58.586L234.829 58.37C234.829 57.742 234.941 57.204 235.165 56.756C235.393 56.304 235.711 55.958 236.119 55.718C236.531 55.474 237.015 55.352 237.571 55.352C237.991 55.352 238.349 55.418 238.645 55.55C238.941 55.682 239.187 55.858 239.383 56.078C239.579 56.294 239.733 56.538 239.845 56.81C239.957 57.078 240.035 57.352 240.079 57.632C240.127 57.908 240.151 58.17 240.151 58.418V62H239.071ZM234.451 62V53.36H235.411V58.13H235.531V62H234.451ZM245.013 64.88L246.267 61.472L246.285 62.48L243.453 55.52H244.575L246.795 61.118H246.411L248.493 55.52H249.579L246.051 64.88H245.013ZM253.096 62.18C252.452 62.18 251.896 62.034 251.428 61.742C250.964 61.45 250.606 61.046 250.354 60.53C250.102 60.014 249.976 59.422 249.976 58.754C249.976 58.074 250.104 57.478 250.36 56.966C250.616 56.454 250.978 56.056 251.446 55.772C251.914 55.484 252.464 55.34 253.096 55.34C253.744 55.34 254.302 55.486 254.77 55.778C255.238 56.066 255.596 56.468 255.844 56.984C256.096 57.496 256.222 58.086 256.222 58.754C256.222 59.43 256.096 60.026 255.844 60.542C255.592 61.054 255.232 61.456 254.764 61.748C254.296 62.036 253.74 62.18 253.096 62.18ZM253.096 61.166C253.768 61.166 254.268 60.942 254.596 60.494C254.924 60.046 255.088 59.466 255.088 58.754C255.088 58.022 254.922 57.44 254.59 57.008C254.258 56.572 253.76 56.354 253.096 56.354C252.644 56.354 252.272 56.456 251.98 56.66C251.688 56.864 251.47 57.146 251.326 57.506C251.182 57.866 251.11 58.282 251.11 58.754C251.11 59.482 251.278 60.066 251.614 60.506C251.95 60.946 252.444 61.166 253.096 61.166ZM260.003 62.168C259.587 62.168 259.229 62.102 258.929 61.97C258.633 61.838 258.387 61.662 258.191 61.442C257.995 61.222 257.841 60.978 257.729 60.71C257.617 60.442 257.537 60.168 257.489 59.888C257.445 59.608 257.423 59.346 257.423 59.102V55.52H258.503V58.766C258.503 59.07 258.531 59.364 258.587 59.648C258.643 59.932 258.737 60.188 258.869 60.416C259.005 60.644 259.185 60.824 259.409 60.956C259.637 61.088 259.921 61.154 260.261 61.154C260.529 61.154 260.773 61.108 260.993 61.016C261.213 60.924 261.401 60.788 261.557 60.608C261.713 60.424 261.833 60.192 261.917 59.912C262.001 59.632 262.043 59.306 262.043 58.934L262.745 59.15C262.745 59.774 262.631 60.312 262.403 60.764C262.179 61.216 261.861 61.564 261.449 61.808C261.041 62.048 260.559 62.168 260.003 62.168ZM262.163 62V60.266H262.043V55.52H263.117V62H262.163ZM264.797 62V55.52H265.751V57.086L265.595 56.882C265.671 56.682 265.769 56.498 265.889 56.33C266.013 56.162 266.151 56.024 266.303 55.916C266.471 55.78 266.661 55.676 266.873 55.604C267.085 55.532 267.301 55.49 267.521 55.478C267.741 55.462 267.947 55.476 268.139 55.52V56.522C267.915 56.462 267.669 56.446 267.401 56.474C267.133 56.502 266.885 56.6 266.657 56.768C266.449 56.916 266.287 57.096 266.171 57.308C266.059 57.52 265.981 57.75 265.937 57.998C265.893 58.242 265.871 58.492 265.871 58.748V62H264.797ZM274.484 62.18C273.848 62.18 273.292 62.04 272.816 61.76C272.344 61.476 271.976 61.082 271.712 60.578C271.448 60.07 271.316 59.478 271.316 58.802C271.316 58.094 271.446 57.482 271.706 56.966C271.966 56.446 272.328 56.046 272.792 55.766C273.26 55.482 273.808 55.34 274.436 55.34C275.088 55.34 275.642 55.49 276.098 55.79C276.558 56.09 276.902 56.518 277.13 57.074C277.362 57.63 277.462 58.292 277.43 59.06H276.35V58.676C276.338 57.88 276.176 57.286 275.864 56.894C275.552 56.498 275.088 56.3 274.472 56.3C273.812 56.3 273.31 56.512 272.966 56.936C272.622 57.36 272.45 57.968 272.45 58.76C272.45 59.524 272.622 60.116 272.966 60.536C273.31 60.956 273.8 61.166 274.436 61.166C274.864 61.166 275.236 61.068 275.552 60.872C275.868 60.676 276.116 60.394 276.296 60.026L277.322 60.38C277.07 60.952 276.69 61.396 276.182 61.712C275.678 62.024 275.112 62.18 274.484 62.18ZM272.09 59.06V58.202H276.878V59.06H272.09ZM280.491 62.18C280.007 62.18 279.601 62.092 279.273 61.916C278.949 61.736 278.703 61.5 278.535 61.208C278.371 60.916 278.289 60.596 278.289 60.248C278.289 59.908 278.353 59.614 278.481 59.366C278.613 59.114 278.797 58.906 279.033 58.742C279.269 58.574 279.551 58.442 279.879 58.346C280.187 58.262 280.531 58.19 280.911 58.13C281.295 58.066 281.683 58.008 282.075 57.956C282.467 57.904 282.833 57.854 283.173 57.806L282.789 58.028C282.801 57.452 282.685 57.026 282.441 56.75C282.201 56.474 281.785 56.336 281.193 56.336C280.801 56.336 280.457 56.426 280.161 56.606C279.869 56.782 279.663 57.07 279.543 57.47L278.529 57.164C278.685 56.596 278.987 56.15 279.435 55.826C279.883 55.502 280.473 55.34 281.205 55.34C281.793 55.34 282.297 55.446 282.717 55.658C283.141 55.866 283.445 56.182 283.629 56.606C283.721 56.806 283.779 57.024 283.803 57.26C283.827 57.492 283.839 57.736 283.839 57.992V62H282.891V60.446L283.113 60.59C282.869 61.114 282.527 61.51 282.087 61.778C281.651 62.046 281.119 62.18 280.491 62.18ZM280.653 61.286C281.037 61.286 281.369 61.218 281.649 61.082C281.933 60.942 282.161 60.76 282.333 60.536C282.505 60.308 282.617 60.06 282.669 59.792C282.729 59.592 282.761 59.37 282.765 59.126C282.773 58.878 282.777 58.688 282.777 58.556L283.149 58.718C282.801 58.766 282.459 58.812 282.123 58.856C281.787 58.9 281.469 58.948 281.169 59C280.869 59.048 280.599 59.106 280.359 59.174C280.183 59.23 280.017 59.302 279.861 59.39C279.709 59.478 279.585 59.592 279.489 59.732C279.397 59.868 279.351 60.038 279.351 60.242C279.351 60.418 279.395 60.586 279.483 60.746C279.575 60.906 279.715 61.036 279.903 61.136C280.095 61.236 280.345 61.286 280.653 61.286ZM285.399 62V55.52H286.353V57.086L286.197 56.882C286.273 56.682 286.371 56.498 286.491 56.33C286.615 56.162 286.753 56.024 286.905 55.916C287.073 55.78 287.263 55.676 287.475 55.604C287.687 55.532 287.903 55.49 288.123 55.478C288.343 55.462 288.549 55.476 288.741 55.52V56.522C288.517 56.462 288.271 56.446 288.003 56.474C287.735 56.502 287.487 56.6 287.259 56.768C287.051 56.916 286.889 57.096 286.773 57.308C286.661 57.52 286.583 57.75 286.539 57.998C286.495 58.242 286.473 58.492 286.473 58.748V62H285.399ZM294.489 62V58.754C294.489 58.446 294.461 58.15 294.405 57.866C294.353 57.582 294.259 57.328 294.123 57.104C293.991 56.876 293.811 56.696 293.583 56.564C293.359 56.432 293.075 56.366 292.731 56.366C292.463 56.366 292.219 56.412 291.999 56.504C291.783 56.592 291.597 56.728 291.441 56.912C291.285 57.096 291.163 57.328 291.075 57.608C290.991 57.884 290.949 58.21 290.949 58.586L290.247 58.37C290.247 57.742 290.359 57.204 290.583 56.756C290.811 56.304 291.129 55.958 291.537 55.718C291.949 55.474 292.433 55.352 292.989 55.352C293.409 55.352 293.767 55.418 294.063 55.55C294.359 55.682 294.605 55.858 294.801 56.078C294.997 56.294 295.151 56.538 295.263 56.81C295.375 57.078 295.453 57.352 295.497 57.632C295.545 57.908 295.569 58.17 295.569 58.418V62H294.489ZM289.869 62V55.52H290.829V57.254H290.949V62H289.869ZM297.249 54.374V53.27H298.317V54.374H297.249ZM297.249 62V55.52H298.317V62H297.249ZM304.731 62V58.754C304.731 58.446 304.703 58.15 304.647 57.866C304.595 57.582 304.501 57.328 304.365 57.104C304.233 56.876 304.053 56.696 303.825 56.564C303.601 56.432 303.317 56.366 302.973 56.366C302.705 56.366 302.461 56.412 302.241 56.504C302.025 56.592 301.839 56.728 301.683 56.912C301.527 57.096 301.405 57.328 301.317 57.608C301.233 57.884 301.191 58.21 301.191 58.586L300.489 58.37C300.489 57.742 300.601 57.204 300.825 56.756C301.053 56.304 301.371 55.958 301.779 55.718C302.191 55.474 302.675 55.352 303.231 55.352C303.651 55.352 304.009 55.418 304.305 55.55C304.601 55.682 304.847 55.858 305.043 56.078C305.239 56.294 305.393 56.538 305.505 56.81C305.617 57.078 305.695 57.352 305.739 57.632C305.787 57.908 305.811 58.17 305.811 58.418V62H304.731ZM300.111 62V55.52H301.071V57.254H301.191V62H300.111ZM309.993 65.06C309.653 65.06 309.321 65.008 308.997 64.904C308.673 64.8 308.375 64.642 308.103 64.43C307.835 64.222 307.611 63.958 307.431 63.638L308.409 63.122C308.569 63.438 308.795 63.668 309.087 63.812C309.383 63.956 309.687 64.028 309.999 64.028C310.411 64.028 310.753 63.952 311.025 63.8C311.297 63.652 311.497 63.43 311.625 63.134C311.757 62.838 311.821 62.47 311.817 62.03V60.26H311.943V55.52H312.891V62.042C312.891 62.218 312.885 62.388 312.873 62.552C312.865 62.716 312.845 62.878 312.813 63.038C312.729 63.498 312.563 63.876 312.315 64.172C312.067 64.472 311.747 64.694 311.355 64.838C310.963 64.986 310.509 65.06 309.993 65.06ZM309.915 62.18C309.311 62.18 308.793 62.03 308.361 61.73C307.929 61.426 307.595 61.016 307.359 60.5C307.127 59.984 307.011 59.402 307.011 58.754C307.011 58.106 307.127 57.524 307.359 57.008C307.595 56.492 307.929 56.086 308.361 55.79C308.793 55.49 309.309 55.34 309.909 55.34C310.521 55.34 311.035 55.488 311.451 55.784C311.867 56.08 312.181 56.486 312.393 57.002C312.609 57.518 312.717 58.102 312.717 58.754C312.717 59.398 312.609 59.98 312.393 60.5C312.181 61.016 311.867 61.426 311.451 61.73C311.035 62.03 310.523 62.18 309.915 62.18ZM310.047 61.202C310.483 61.202 310.841 61.098 311.121 60.89C311.401 60.678 311.607 60.388 311.739 60.02C311.875 59.648 311.943 59.226 311.943 58.754C311.943 58.274 311.875 57.852 311.739 57.488C311.607 57.12 311.403 56.834 311.127 56.63C310.851 56.422 310.501 56.318 310.077 56.318C309.637 56.318 309.273 56.426 308.985 56.642C308.701 56.858 308.489 57.15 308.349 57.518C308.213 57.886 308.145 58.298 308.145 58.754C308.145 59.214 308.215 59.63 308.355 60.002C308.495 60.37 308.705 60.662 308.985 60.878C309.269 61.094 309.623 61.202 310.047 61.202ZM317.015 62.174C316.243 62.174 315.609 62.006 315.113 61.67C314.621 61.33 314.319 60.856 314.207 60.248L315.299 60.074C315.387 60.426 315.589 60.706 315.905 60.914C316.221 61.118 316.613 61.22 317.081 61.22C317.525 61.22 317.873 61.128 318.125 60.944C318.377 60.76 318.503 60.51 318.503 60.194C318.503 60.01 318.461 59.862 318.377 59.75C318.293 59.634 318.119 59.526 317.855 59.426C317.595 59.326 317.201 59.206 316.673 59.066C316.101 58.914 315.651 58.756 315.323 58.592C314.995 58.428 314.761 58.238 314.621 58.022C314.481 57.806 314.411 57.544 314.411 57.236C314.411 56.856 314.515 56.524 314.723 56.24C314.931 55.952 315.221 55.73 315.593 55.574C315.969 55.418 316.405 55.34 316.901 55.34C317.393 55.34 317.833 55.418 318.221 55.574C318.609 55.73 318.921 55.952 319.157 56.24C319.397 56.524 319.539 56.856 319.583 57.236L318.491 57.434C318.439 57.086 318.271 56.812 317.987 56.612C317.707 56.412 317.345 56.306 316.901 56.294C316.481 56.278 316.139 56.352 315.875 56.516C315.615 56.68 315.485 56.902 315.485 57.182C315.485 57.338 315.533 57.472 315.629 57.584C315.729 57.696 315.911 57.802 316.175 57.902C316.443 58.002 316.831 58.116 317.339 58.244C317.911 58.388 318.361 58.546 318.689 58.718C319.021 58.886 319.257 59.086 319.397 59.318C319.537 59.546 319.607 59.828 319.607 60.164C319.607 60.788 319.377 61.28 318.917 61.64C318.457 61.996 317.823 62.174 317.015 62.174ZM323.332 62V55.52H324.286V57.086L324.13 56.882C324.206 56.682 324.304 56.498 324.424 56.33C324.548 56.162 324.686 56.024 324.838 55.916C325.006 55.78 325.196 55.676 325.408 55.604C325.62 55.532 325.836 55.49 326.056 55.478C326.276 55.462 326.482 55.476 326.674 55.52V56.522C326.45 56.462 326.204 56.446 325.936 56.474C325.668 56.502 325.42 56.6 325.192 56.768C324.984 56.916 324.822 57.096 324.706 57.308C324.594 57.52 324.516 57.75 324.472 57.998C324.428 58.242 324.406 58.492 324.406 58.748V62H323.332ZM327.929 54.374V53.27H328.997V54.374H327.929ZM327.929 62V55.52H328.997V62H327.929ZM333.245 62.174C332.473 62.174 331.839 62.006 331.343 61.67C330.851 61.33 330.549 60.856 330.437 60.248L331.529 60.074C331.617 60.426 331.819 60.706 332.135 60.914C332.451 61.118 332.843 61.22 333.311 61.22C333.755 61.22 334.103 61.128 334.355 60.944C334.607 60.76 334.733 60.51 334.733 60.194C334.733 60.01 334.691 59.862 334.607 59.75C334.523 59.634 334.349 59.526 334.085 59.426C333.825 59.326 333.431 59.206 332.903 59.066C332.331 58.914 331.881 58.756 331.553 58.592C331.225 58.428 330.991 58.238 330.851 58.022C330.711 57.806 330.641 57.544 330.641 57.236C330.641 56.856 330.745 56.524 330.953 56.24C331.161 55.952 331.451 55.73 331.823 55.574C332.199 55.418 332.635 55.34 333.131 55.34C333.623 55.34 334.063 55.418 334.451 55.574C334.839 55.73 335.151 55.952 335.387 56.24C335.627 56.524 335.769 56.856 335.813 57.236L334.721 57.434C334.669 57.086 334.501 56.812 334.217 56.612C333.937 56.412 333.575 56.306 333.131 56.294C332.711 56.278 332.369 56.352 332.105 56.516C331.845 56.68 331.715 56.902 331.715 57.182C331.715 57.338 331.763 57.472 331.859 57.584C331.959 57.696 332.141 57.802 332.405 57.902C332.673 58.002 333.061 58.116 333.569 58.244C334.141 58.388 334.591 58.546 334.919 58.718C335.251 58.886 335.487 59.086 335.627 59.318C335.767 59.546 335.837 59.828 335.837 60.164C335.837 60.788 335.607 61.28 335.147 61.64C334.687 61.996 334.053 62.174 333.245 62.174ZM339.968 62.18C339.332 62.18 338.776 62.04 338.3 61.76C337.828 61.476 337.46 61.082 337.196 60.578C336.932 60.07 336.8 59.478 336.8 58.802C336.8 58.094 336.93 57.482 337.19 56.966C337.45 56.446 337.812 56.046 338.276 55.766C338.744 55.482 339.292 55.34 339.92 55.34C340.572 55.34 341.126 55.49 341.582 55.79C342.042 56.09 342.386 56.518 342.614 57.074C342.846 57.63 342.946 58.292 342.914 59.06H341.834V58.676C341.822 57.88 341.66 57.286 341.348 56.894C341.036 56.498 340.572 56.3 339.956 56.3C339.296 56.3 338.794 56.512 338.45 56.936C338.106 57.36 337.934 57.968 337.934 58.76C337.934 59.524 338.106 60.116 338.45 60.536C338.794 60.956 339.284 61.166 339.92 61.166C340.348 61.166 340.72 61.068 341.036 60.872C341.352 60.676 341.6 60.394 341.78 60.026L342.806 60.38C342.554 60.952 342.174 61.396 341.666 61.712C341.162 62.024 340.596 62.18 339.968 62.18ZM337.574 59.06V58.202H342.362V59.06H337.574ZM344.208 62V60.824H345.384V62H344.208Z" fill="#73798C"/>
<path d="M425 43.3542C419.564 43.3542 415.146 38.9358 415.146 33.5C415.146 28.0642 419.564 23.6458 425 23.6458C430.436 23.6458 434.854 28.0642 434.854 33.5C434.854 38.9358 430.436 43.3542 425 43.3542ZM425 25.0208C420.325 25.0208 416.521 28.825 416.521 33.5C416.521 38.175 420.325 41.9792 425 41.9792C429.675 41.9792 433.479 38.175 433.479 33.5C433.479 28.825 429.675 25.0208 425 25.0208Z" fill="#F9C320"/>
<path d="M423.698 36.7817C423.515 36.7817 423.341 36.7083 423.213 36.58L420.618 33.9858C420.353 33.72 420.353 33.28 420.618 33.0142C420.884 32.7483 421.324 32.7483 421.59 33.0142L423.698 35.1225L428.41 30.4108C428.676 30.145 429.116 30.145 429.382 30.4108C429.648 30.6767 429.648 31.1167 429.382 31.3825L424.184 36.58C424.056 36.7083 423.882 36.7817 423.698 36.7817Z" fill="#F9C320"/>
<defs>
<filter id="filter0_d_0_140" x="-2" y="7" width="69" height="85" filterUnits="userSpaceOnUse" color-interpolation-filters="sRGB">
<feFlood flood-opacity="0" result="BackgroundImageFix"/>
<feColorMatrix in="SourceAlpha" type="matrix" values="0 0 0 0 0 0 0 0 0 0 0 0 0 0 0 0 0 0 127 0" result="hardAlpha"/>
<feOffset dy="4"/>
<feGaussianBlur stdDeviation="5"/>
<feComposite in2="hardAlpha" operator="out"/>
<feColorMatrix type="matrix" values="0 0 0 0 0.4 0 0 0 0 0.4 0 0 0 0 0.4 0 0 0 0.1 0"/>
<feBlend mode="normal" in2="BackgroundImageFix" result="effect1_dropShadow_0_140"/>
<feBlend mode="normal" in="SourceGraphic" in2="effect1_dropShadow_0_140" result="shape"/>
</filter>
<clipPath id="clip0_0_140">
<rect y="1" width="65" height="65" rx="14" fill="white"/>
</clipPath>
<clipPath id="clip1_0_140">
<path d="M8 19C8 15.6863 10.6863 13 14 13H51C54.3137 13 57 15.6863 57 19V78H8V19Z" fill="white"/>
</clipPath>
</defs>
</svg>
