<svg width="141" height="34" viewBox="0 0 141 34" fill="none" xmlns="http://www.w3.org/2000/svg">
<rect width="141" height="34" rx="17" fill="#FEEBEE"/>
<path d="M26 25.9583C21.6333 25.9583 18.0833 22.4083 18.0833 18.0417C18.0833 13.675 21.6333 10.125 26 10.125C30.3667 10.125 33.9167 13.675 33.9167 18.0417C33.9167 22.4083 30.3667 25.9583 26 25.9583ZM26 11.375C22.325 11.375 19.3333 14.3667 19.3333 18.0417C19.3333 21.7167 22.325 24.7083 26 24.7083C29.675 24.7083 32.6667 21.7167 32.6667 18.0417C32.6667 14.3667 29.675 11.375 26 11.375Z" fill="#E60A2B"/>
<path d="M26 18.4584C25.6583 18.4584 25.375 18.175 25.375 17.8334V13.6667C25.375 13.325 25.6583 13.0417 26 13.0417C26.3417 13.0417 26.625 13.325 26.625 13.6667V17.8334C26.625 18.175 26.3417 18.4584 26 18.4584Z" fill="#E60A2B"/>
<path d="M28.5 9.29169H23.5C23.1583 9.29169 22.875 9.00835 22.875 8.66669C22.875 8.32502 23.1583 8.04169 23.5 8.04169H28.5C28.8417 8.04169 29.125 8.32502 29.125 8.66669C29.125 9.00835 28.8417 9.29169 28.5 9.29169Z" fill="#E60A2B"/>
<path d="M45.124 22.21C47.455 22.21 48.988 20.929 49.562 18.927L48.295 18.591C47.882 20.089 46.825 21.02 45.124 21.02C42.87 21.02 41.722 19.375 41.736 16.96C41.75 14.545 42.87 12.9 45.124 12.9C46.825 12.9 47.882 13.831 48.295 15.329L49.562 14.993C48.988 12.991 47.455 11.71 45.124 11.71C42.107 11.71 40.42 13.852 40.42 16.96C40.42 20.068 42.107 22.21 45.124 22.21ZM54.1172 22.21C56.3642 22.21 57.7642 20.586 57.7642 18.213C57.7642 15.875 56.3852 14.23 54.1172 14.23C51.8982 14.23 50.4772 15.84 50.4772 18.213C50.4772 20.558 51.8562 22.21 54.1172 22.21ZM54.1172 21.027C52.5912 21.027 51.8002 19.921 51.8002 18.213C51.8002 16.561 52.5352 15.413 54.1172 15.413C55.6642 15.413 56.4412 16.512 56.4412 18.213C56.4412 19.879 55.6782 21.027 54.1172 21.027ZM66.8544 14.244C65.8604 14.244 65.0134 14.713 64.5654 15.49C64.1594 14.699 63.3824 14.244 62.3604 14.244C61.4574 14.244 60.6874 14.629 60.2114 15.245V14.44H59.0984V22H60.3514V17.198C60.3514 16.092 61.0094 15.357 61.9964 15.357C62.9834 15.357 63.6344 16.064 63.6344 17.212L63.6274 22H64.8664L64.8734 17.198C64.8734 15.924 65.6784 15.357 66.5254 15.357C67.4774 15.357 68.1494 16.036 68.1494 17.163L68.1424 22H69.3884L69.3954 16.89C69.3954 15.28 68.4294 14.244 66.8544 14.244ZM72.4047 13.103V11.815H71.1587V13.103H72.4047ZM72.4047 22V14.44H71.1587V22H72.4047ZM77.938 14.244C76.846 14.244 75.978 14.664 75.418 15.413V14.44H74.298V22H75.558V18.017C75.558 16.267 76.384 15.427 77.637 15.427C79.233 15.427 79.688 16.792 79.688 18.213V22H80.948V17.821C80.948 16.386 80.374 14.244 77.938 14.244ZM87.9019 15.287C87.3489 14.622 86.5579 14.23 85.5289 14.23C83.4289 14.23 82.1479 15.945 82.1479 18.213C82.1479 20.481 83.4219 22.21 85.5359 22.21C86.4669 22.21 87.2159 21.874 87.7549 21.307V22.035C87.7689 23.575 87.0759 24.366 85.6339 24.366C84.8989 24.366 84.1499 24.051 83.7789 23.309L82.6379 23.911C83.2679 25.038 84.4369 25.57 85.6269 25.57C87.4329 25.57 88.6229 24.821 88.9169 23.211C88.9869 22.84 89.0079 22.469 89.0079 22.049V14.44H87.9019V15.287ZM85.6899 21.069C84.1989 21.069 83.4709 19.823 83.4709 18.213C83.4709 16.617 84.1849 15.371 85.7249 15.371C87.2019 15.371 87.9019 16.54 87.9019 18.213C87.9019 19.872 87.2159 21.069 85.6899 21.069ZM96.2212 22.203C98.1042 22.203 99.2452 21.321 99.2452 19.858C99.2452 18.689 98.5942 18.129 96.5992 17.618C94.8212 17.17 94.4362 16.932 94.4362 16.379C94.4362 15.735 95.1082 15.315 96.0882 15.343C97.1172 15.371 97.8172 15.868 97.9432 16.673L99.2172 16.442C99.0562 15.112 97.8102 14.23 96.0882 14.23C94.3452 14.23 93.1832 15.112 93.1832 16.442C93.1832 17.527 93.8202 18.045 95.8222 18.577C97.6702 19.074 97.9572 19.256 97.9572 19.893C97.9572 20.635 97.3272 21.09 96.2982 21.09C95.2062 21.09 94.4222 20.579 94.2192 19.753L92.9452 19.956C93.2042 21.377 94.4152 22.203 96.2212 22.203ZM103.809 22.21C106.056 22.21 107.456 20.586 107.456 18.213C107.456 15.875 106.077 14.23 103.809 14.23C101.59 14.23 100.169 15.84 100.169 18.213C100.169 20.558 101.548 22.21 103.809 22.21ZM103.809 21.027C102.283 21.027 101.492 19.921 101.492 18.213C101.492 16.561 102.227 15.413 103.809 15.413C105.356 15.413 106.133 16.512 106.133 18.213C106.133 19.879 105.37 21.027 103.809 21.027ZM112.017 22.21C114.264 22.21 115.664 20.586 115.664 18.213C115.664 15.875 114.285 14.23 112.017 14.23C109.798 14.23 108.377 15.84 108.377 18.213C108.377 20.558 109.756 22.21 112.017 22.21ZM112.017 21.027C110.491 21.027 109.7 19.921 109.7 18.213C109.7 16.561 110.435 15.413 112.017 15.413C113.564 15.413 114.341 16.512 114.341 18.213C114.341 19.879 113.578 21.027 112.017 21.027ZM120.638 14.244C119.546 14.244 118.678 14.664 118.118 15.413V14.44H116.998V22H118.258V18.017C118.258 16.267 119.084 15.427 120.337 15.427C121.933 15.427 122.388 16.792 122.388 18.213V22H123.648V17.821C123.648 16.386 123.074 14.244 120.638 14.244Z" fill="#E60A2B"/>
</svg>
